<?xml version="1.0" encoding="utf-8"?>
<!-- Generator: Adobe Illustrator 26.0.1, SVG Export Plug-In . SVG Version: 6.00 Build 0)  -->
<svg version="1.1" id="Layer_1" xmlns="http://www.w3.org/2000/svg" xmlns:xlink="http://www.w3.org/1999/xlink" x="0px" y="0px"
	 viewBox="0 0 24 24" style="enable-background:new 0 0 24 24;" xml:space="preserve">
<style type="text/css">
	.st0{fill:#399CFF;}
	.st1{fill:none;stroke:#399CFF;strokeLinecap:round;stroke-miterlimit:10;}
</style>
<g>
	<path class="st0" d="M20.5,1.98c1.1,0,2,0.9,2,2s-0.9,2-2,2h-17c-1.1,0-2-0.9-2-2s0.9-2,2-2H20.5 M20.5,0.48h-17
		C1.57,0.48,0,2.05,0,3.98s1.57,3.5,3.5,3.5h17c1.93,0,3.5-1.57,3.5-3.5S22.43,0.48,20.5,0.48L20.5,0.48z"/>
</g>
<g>
	<path class="st0" d="M9.03,4.73H3.7c-0.41,0-0.75-0.34-0.75-0.75S3.29,3.23,3.7,3.23h5.33c0.41,0,0.75,0.34,0.75,0.75
		S9.45,4.73,9.03,4.73z"/>
</g>
<g>
	<path class="st0" d="M20.5,9.98c1.1,0,2,0.9,2,2s-0.9,2-2,2h-17c-1.1,0-2-0.9-2-2s0.9-2,2-2H20.5 M20.5,8.48h-17
		c-1.93,0-3.5,1.57-3.5,3.5s1.57,3.5,3.5,3.5h17c1.93,0,3.5-1.57,3.5-3.5S22.43,8.48,20.5,8.48L20.5,8.48z"/>
</g>
<g>
	<path class="st0" d="M9.03,12.73H3.7c-0.41,0-0.75-0.34-0.75-0.75s0.34-0.75,0.75-0.75h5.33c0.41,0,0.75,0.34,0.75,0.75
		S9.45,12.73,9.03,12.73z"/>
</g>
<g>
	<path class="st0" d="M9.03,20.77H3.7c-0.41,0-0.75-0.34-0.75-0.75s0.34-0.75,0.75-0.75h5.33c0.41,0,0.75,0.34,0.75,0.75
		S9.45,20.77,9.03,20.77z"/>
</g>
<g>
	<path class="st0" d="M20.5,18.02c1.1,0,2,0.9,2,2s-0.9,2-2,2h-17c-1.1,0-2-0.9-2-2s0.9-2,2-2H20.5 M20.5,16.52h-17
		c-1.93,0-3.5,1.57-3.5,3.5s1.57,3.5,3.5,3.5h17c1.93,0,3.5-1.57,3.5-3.5S22.43,16.52,20.5,16.52L20.5,16.52z"/>
</g>
<polyline class="st1" points="20.24,3.48 19.24,4.48 18.24,3.48 "/>
<polyline class="st1" points="20.24,11.48 19.24,12.48 18.24,11.48 "/>
<polyline class="st1" points="20.24,19.52 19.24,20.52 18.24,19.52 "/>
</svg>
