<?xml version="1.0" encoding="utf-8"?>
<!-- Generator: Adobe Illustrator 26.0.1, SVG Export Plug-In . SVG Version: 6.00 Build 0)  -->
<svg version="1.1" id="Layer_1" xmlns="http://www.w3.org/2000/svg" xmlns:xlink="http://www.w3.org/1999/xlink" x="0px" y="0px"
	 viewBox="0 0 24 24" style="enable-background:new 0 0 24 24;" xml:space="preserve">
<style type="text/css">
	.st0{fill:#399CFF;}
	.st1{fill:#B0D7FF;}
</style>
<g>
	<path class="st0" d="M21,2c0.83,0,1.5,0.67,1.5,1.5v12c0,0.83-0.67,1.5-1.5,1.5H3c-0.83,0-1.5-0.67-1.5-1.5v-12
		C1.5,2.67,2.17,2,3,2H21 M21,0.5H3c-1.66,0-3,1.34-3,3v12c0,1.66,1.34,3,3,3h18c1.66,0,3-1.34,3-3v-12C24,1.84,22.66,0.5,21,0.5
		L21,0.5z"/>
	<g>
		<path class="st0" d="M1.35,14.03l-1.06-1.06l2.08-2.08c1.07-1.07,2.82-1.07,3.89,0l0.38,0.38c0.47,0.47,1.29,0.47,1.77,0
			l5.22-5.22c0.53-0.53,1.24-0.83,2.02-0.8c0.75,0.02,1.47,0.36,1.97,0.92L23.74,13l-1.12,1L16.5,7.16
			c-0.23-0.26-0.55-0.41-0.9-0.42c-0.36-0.01-0.67,0.12-0.92,0.37l-5.22,5.22c-1.04,1.04-2.85,1.04-3.89,0L5.2,11.95
			c-0.49-0.49-1.28-0.49-1.77,0L1.35,14.03z"/>
	</g>
	<g>
		<path class="st1" d="M5.2,21.5c0.28,0,0.5,0.22,0.5,0.5s-0.22,0.5-0.5,0.5S4.7,22.28,4.7,22S4.92,21.5,5.2,21.5 M5.2,20.5
			c-0.83,0-1.5,0.67-1.5,1.5s0.67,1.5,1.5,1.5s1.5-0.67,1.5-1.5S6.03,20.5,5.2,20.5L5.2,20.5z"/>
		<path class="st1" d="M18.8,21.5c0.28,0,0.5,0.22,0.5,0.5s-0.22,0.5-0.5,0.5H9.4c-0.28,0-0.5-0.22-0.5-0.5s0.22-0.5,0.5-0.5H18.8
			 M18.8,20.5H9.4c-0.83,0-1.5,0.67-1.5,1.5s0.67,1.5,1.5,1.5h9.4c0.83,0,1.5-0.67,1.5-1.5S19.63,20.5,18.8,20.5L18.8,20.5z"/>
	</g>
</g>
</svg>
