<?xml version="1.0" encoding="utf-8"?>
<!-- Generator: Adobe Illustrator 26.0.1, SVG Export Plug-In . SVG Version: 6.00 Build 0)  -->
<svg version="1.1" id="Layer_1" xmlns="http://www.w3.org/2000/svg" xmlns:xlink="http://www.w3.org/1999/xlink" x="0px" y="0px"
	 viewBox="0 0 24 24" style="enable-background:new 0 0 24 24;" xml:space="preserve">
<style type="text/css">
	.st0{fill:#399CFF;}
</style>
<g>
	<g>
		<path class="st0" d="M21.2,18.2h-4.1V5.7h4.1C22.8,5.7,24,7,24,8.5v7C24,17,22.8,18.2,21.2,18.2z M18.7,16.7h2.6
			c0.7,0,1.2-0.6,1.2-1.2v-7c0-0.7-0.6-1.2-1.2-1.2h-2.6V16.7z"/>
	</g>
	<g>
		<path class="st0" d="M15.5,18.2H2.8C1.2,18.2,0,17,0,15.5v-7C0,7,1.2,5.7,2.8,5.7h12.8V18.2z M2.8,7.2c-0.7,0-1.2,0.6-1.2,1.2v7
			c0,0.7,0.6,1.2,1.2,1.2H14V7.2H2.8z"/>
	</g>
	<g>
		<path class="st0" d="M15.5,7.3H14c0-1.8-1.5-3.2-3.3-3.2V2.6h8v1.5C17,4.1,15.5,5.5,15.5,7.3z M14.2,4.1c0.2,0.2,0.4,0.4,0.5,0.7
			c0.2-0.2,0.3-0.5,0.5-0.7H14.2z"/>
	</g>
	<g>
		<path class="st0" d="M18.8,21.4h-8v-1.5c1.8,0,3.2-1.5,3.2-3.2h1.5c0,1.8,1.5,3.2,3.2,3.2V21.4z M14.2,19.9h1.1
			c-0.2-0.2-0.4-0.4-0.5-0.7C14.6,19.5,14.4,19.7,14.2,19.9z"/>
	</g>
	<g>
		<path class="st0" d="M5.2,14.4v-0.1c0.1,0,0.2,0,0.3-0.1c0.1,0,0.1-0.1,0.1-0.2c0-0.1,0-0.2,0-0.4v-3.4c0-0.2,0-0.3,0-0.4
			c0-0.1-0.1-0.1-0.1-0.2c-0.1,0-0.2,0-0.3-0.1V9.6c0.1,0,0.3,0,0.5,0c0.2,0,0.4,0,0.6,0c0.2,0,0.4,0,0.6,0c0.2,0,0.4,0,0.5,0v0.1
			c-0.1,0-0.2,0-0.3,0.1C7,9.8,7,9.9,7,10c0,0.1,0,0.2,0,0.4v3.4c0,0.2,0,0.3,0,0.4c0,0.1,0.1,0.1,0.1,0.2c0.1,0,0.2,0,0.3,0.1v0.1
			c-0.1,0-0.3,0-0.5,0c-0.2,0-0.4,0-0.6,0c-0.2,0-0.4,0-0.6,0C5.5,14.4,5.3,14.4,5.2,14.4z"/>
		<rect x="6.4" y="11.7" class="st0" width="2.7" height="0.5"/>
		<path class="st0" d="M8.1,14.4v-0.1c0.1,0,0.2,0,0.3-0.1c0.1,0,0.1-0.1,0.1-0.2c0-0.1,0-0.2,0-0.4v-3.4c0-0.2,0-0.3,0-0.4
			c0-0.1-0.1-0.1-0.1-0.2c-0.1,0-0.2,0-0.3-0.1V9.6c0.1,0,0.3,0,0.5,0c0.2,0,0.4,0,0.6,0c0.2,0,0.4,0,0.6,0c0.2,0,0.3,0,0.5,0v0.1
			c-0.1,0-0.2,0-0.3,0.1c-0.1,0-0.1,0.1-0.1,0.2c0,0.1,0,0.2,0,0.4v3.4c0,0.2,0,0.3,0,0.4c0,0.1,0.1,0.1,0.1,0.2
			c0.1,0,0.2,0,0.3,0.1v0.1c-0.1,0-0.3,0-0.5,0c-0.2,0-0.4,0-0.6,0c-0.2,0-0.4,0-0.6,0C8.4,14.4,8.2,14.4,8.1,14.4z"/>
	</g>
</g>
</svg>
