<?xml version="1.0" encoding="utf-8"?>
<!-- Generator: Adobe Illustrator 26.0.1, SVG Export Plug-In . SVG Version: 6.00 Build 0)  -->
<svg version="1.1" id="Layer_1" xmlns="http://www.w3.org/2000/svg" xmlns:xlink="http://www.w3.org/1999/xlink" x="0px" y="0px"
	 viewBox="0 0 24 24" style="enable-background:new 0 0 24 24;" xml:space="preserve">
<style type="text/css">
	.st0{fill:#399CFF;}
</style>
<g>
	<path class="st0" d="M21,2c0.83,0,1.5,0.67,1.5,1.5v10c0,0.83-0.67,1.5-1.5,1.5H3c-0.83,0-1.5-0.67-1.5-1.5v-10
		C1.5,2.67,2.17,2,3,2H21 M21,0.5H3c-1.66,0-3,1.34-3,3v10c0,1.66,1.34,3,3,3h18c1.66,0,3-1.34,3-3v-10C24,1.84,22.66,0.5,21,0.5
		L21,0.5z"/>
	<path class="st0" d="M4.53,20c0.55,0,1,0.45,1,1s-0.45,1-1,1s-1-0.45-1-1S3.98,20,4.53,20 M4.53,18.5c-1.38,0-2.5,1.12-2.5,2.5
		s1.12,2.5,2.5,2.5s2.5-1.12,2.5-2.5S5.91,18.5,4.53,18.5L4.53,18.5z"/>
	<g>
		<path class="st0" d="M20.85,21.75H9.02c-0.41,0-0.75-0.34-0.75-0.75l0,0c0-0.41,0.34-0.75,0.75-0.75h11.83
			c0.41,0,0.75,0.34,0.75,0.75l0,0C21.6,21.41,21.26,21.75,20.85,21.75z"/>
	</g>
	<path class="st0" d="M10.5,7.06L13,8.5L10.5,9.94V7.06 M10.01,5.19c-0.52,0-1,0.42-1,1v4.61c0,0.58,0.48,1,1,1
		c0.17,0,0.34-0.04,0.5-0.14l3.99-2.3c0.67-0.38,0.67-1.35,0-1.73l-3.99-2.3C10.34,5.24,10.17,5.19,10.01,5.19L10.01,5.19z"/>
</g>
</svg>
