<?xml version="1.0" encoding="utf-8"?>
<!-- Generator: Adobe Illustrator 26.0.1, SVG Export Plug-In . SVG Version: 6.00 Build 0)  -->
<svg version="1.1" id="Layer_1" xmlns="http://www.w3.org/2000/svg" xmlns:xlink="http://www.w3.org/1999/xlink" x="0px" y="0px"
	 viewBox="0 0 24 24" style="enable-background:new 0 0 24 24;" xml:space="preserve">
<style type="text/css">
	.st0{fill:#399CFF;}
</style>
<g>
	<g>
		<path class="st0" d="M18.79,5.84H8.37c-2.87,0-5.2,2.34-5.2,5.23s2.33,5.22,5.2,5.22h4.04l-0.12-1.5H8.37
			c-2.04,0-3.71-1.67-3.71-3.72c0-2.06,1.66-3.73,3.71-3.73h10.42c2.05,0,3.72,1.67,3.72,3.73c0,1.29-0.66,2.42-1.64,3.09l1.37,0.83
			c1.09-0.95,1.77-2.35,1.77-3.92C24,8.18,21.67,5.84,18.79,5.84z"/>
	</g>
	<path class="st0" d="M15.25,14.26l2.6,1.58l-0.72,0.09c-0.5,0.06-0.95,0.34-1.24,0.77l-0.4,0.6L15.25,14.26 M13.85,11.7
		c-0.14,0-0.27,0.12-0.26,0.28l0.68,8.99c0.01,0.15,0.14,0.24,0.26,0.24c0.08,0,0.16-0.04,0.22-0.12l2.39-3.57
		c0.04-0.06,0.11-0.11,0.19-0.12l4.25-0.53c0.25-0.03,0.32-0.36,0.1-0.49l-7.69-4.66C13.94,11.71,13.89,11.7,13.85,11.7L13.85,11.7z
		"/>
	<g>
		<path class="st0" d="M19.72,22.3c-0.25,0-0.5-0.13-0.64-0.36l-2.53-4.12c-0.22-0.35-0.11-0.81,0.25-1.03
			c0.35-0.22,0.81-0.11,1.03,0.25l2.53,4.12c0.22,0.35,0.11,0.81-0.25,1.03C19.99,22.27,19.86,22.3,19.72,22.3z"/>
	</g>
	<g>
		<path class="st0" d="M3.68,6.25c-0.19,0-0.38-0.07-0.52-0.21L2.04,4.94c-0.3-0.29-0.3-0.76-0.01-1.06c0.29-0.3,0.76-0.3,1.06-0.01
			L4.2,4.96c0.3,0.29,0.3,0.76,0.01,1.06C4.07,6.17,3.87,6.25,3.68,6.25z"/>
	</g>
	<g>
		<path class="st0" d="M2.24,8.48c-0.07,0-0.15-0.01-0.23-0.04L0.52,7.97C0.13,7.85-0.09,7.43,0.04,7.03
			c0.13-0.39,0.54-0.61,0.94-0.49l1.49,0.48c0.39,0.13,0.61,0.55,0.49,0.94C2.85,8.28,2.55,8.48,2.24,8.48z"/>
	</g>
	<g>
		<path class="st0" d="M5.93,4.68c-0.31,0-0.6-0.19-0.71-0.5L4.71,2.69C4.57,2.3,4.78,1.88,5.17,1.74C5.56,1.6,5.98,1.81,6.12,2.2
			l0.51,1.48C6.77,4.08,6.56,4.5,6.17,4.64C6.09,4.67,6.01,4.68,5.93,4.68z"/>
	</g>
</g>
</svg>
