<?xml version="1.0" encoding="utf-8"?>
<!-- Generator: Adobe Illustrator 26.0.1, SVG Export Plug-In . SVG Version: 6.00 Build 0)  -->
<svg version="1.1" id="Layer_1" xmlns="http://www.w3.org/2000/svg" xmlns:xlink="http://www.w3.org/1999/xlink" x="0px" y="0px"
	 viewBox="0 0 24 24" style="enable-background:new 0 0 24 24;" xml:space="preserve">
<style type="text/css">
	.st0{fill:#399CFF;}
</style>
<g>
	<g>
		<path class="st0" d="M20.5,4.75c1.1,0,2,0.9,2,2s-0.9,2-2,2h-17c-1.1,0-2-0.9-2-2s0.9-2,2-2H20.5 M20.5,3.25h-17
			C1.57,3.25,0,4.82,0,6.75s1.57,3.5,3.5,3.5h17c1.93,0,3.5-1.57,3.5-3.5S22.43,3.25,20.5,3.25L20.5,3.25z"/>
	</g>
	<g>
		<path class="st0" d="M9.03,7.5H3.7c-0.41,0-0.75-0.34-0.75-0.75S3.29,6,3.7,6h5.33c0.41,0,0.75,0.34,0.75,0.75S9.45,7.5,9.03,7.5z
			"/>
	</g>
	<g>
		<path class="st0" d="M20.36,7.5h-1.33c-0.41,0-0.75-0.34-0.75-0.75S18.62,6,19.03,6h1.33c0.41,0,0.75,0.34,0.75,0.75
			S20.78,7.5,20.36,7.5z"/>
	</g>
	<g>
		<path class="st0" d="M15.33,13.75H3.7c-0.41,0-0.75-0.34-0.75-0.75s0.34-0.75,0.75-0.75h11.63c0.41,0,0.75,0.34,0.75,0.75
			S15.74,13.75,15.33,13.75z"/>
	</g>
	<g>
		<path class="st0" d="M15.33,17.25H3.7c-0.41,0-0.75-0.34-0.75-0.75s0.34-0.75,0.75-0.75h11.63c0.41,0,0.75,0.34,0.75,0.75
			S15.74,17.25,15.33,17.25z"/>
	</g>
	<g>
		<path class="st0" d="M15.33,20.75H3.7c-0.41,0-0.75-0.34-0.75-0.75s0.34-0.75,0.75-0.75h11.63c0.41,0,0.75,0.34,0.75,0.75
			S15.74,20.75,15.33,20.75z"/>
	</g>
</g>
</svg>
