<?xml version="1.0" encoding="utf-8"?>
<!-- Generator: Adobe Illustrator 26.0.1, SVG Export Plug-In . SVG Version: 6.00 Build 0)  -->
<svg version="1.1" id="Layer_1" xmlns="http://www.w3.org/2000/svg" xmlns:xlink="http://www.w3.org/1999/xlink" x="0px" y="0px"
	 viewBox="0 0 24 24" style="enable-background:new 0 0 24 24;" xml:space="preserve">
<style type="text/css">
	.st0{fill:#399CFF;}
</style>
<g>
	<g>
		<path class="st0" d="M14.32,15.26H4.5c-2.48,0-4.5-2.02-4.5-4.5s2.02-4.5,4.5-4.5h15c2.48,0,4.5,2.02,4.5,4.5
			c0,1.16-0.44,2.26-1.24,3.1l-1.09-1.04c0.53-0.56,0.83-1.29,0.83-2.07c0-1.65-1.35-3-3-3h-15c-1.65,0-3,1.35-3,3s1.35,3,3,3h9.82
			V15.26z"/>
	</g>
	<g>
		<path class="st0" d="M8.72,11.51H4.45c-0.41,0-0.75-0.34-0.75-0.75s0.34-0.75,0.75-0.75h4.27c0.41,0,0.75,0.34,0.75,0.75
			S9.13,11.51,8.72,11.51z"/>
	</g>
	<g>
		<path class="st0" d="M16.15,9.4c0.12,0.02,0.18,0.09,0.2,0.21c0.04,0.15,0.08,0.3,0.12,0.44c0.04,0.13-0.02,0.23-0.13,0.26
			c-0.11,0.03-0.2-0.03-0.24-0.16c-0.04-0.15-0.08-0.3-0.13-0.45c-0.04-0.11-0.02-0.2,0.07-0.27C16.08,9.42,16.11,9.41,16.15,9.4z"
			/>
		<path class="st0" d="M17.1,14.67c-0.01-0.05-0.02-0.08-0.03-0.11c-0.29-1.01-0.58-2.02-0.86-3.03c-0.07-0.25,0.03-0.49,0.27-0.59
			c0.24-0.11,0.54,0.01,0.63,0.25c0.03,0.09,0.06,0.18,0.08,0.27c0.11,0.4,0.23,0.8,0.35,1.22c0.01-0.05,0.01-0.07,0.01-0.1
			c0.03-0.23,0.21-0.4,0.44-0.42c0.23-0.02,0.43,0.11,0.5,0.33c0.05,0.15,0.09,0.31,0.14,0.46c0-0.03,0-0.06,0.01-0.08
			c0.03-0.22,0.21-0.39,0.44-0.41c0.22-0.02,0.42,0.11,0.5,0.32c0.03,0.08,0.05,0.16,0.07,0.23c0.02,0.08,0.04,0.16,0.07,0.25
			c0.01-0.03,0.01-0.05,0.01-0.07c0.03-0.23,0.2-0.41,0.41-0.44c0.24-0.03,0.47,0.1,0.53,0.33c0.21,0.72,0.44,1.43,0.59,2.15
			c0.19,0.9-0.27,1.89-1.13,2.29c-0.68,0.31-1.68,0.34-2.43-0.41c-0.18-0.18-0.33-0.38-0.47-0.59c-0.35-0.53-0.8-0.98-1.27-1.41
			c-0.04-0.04-0.08-0.07-0.12-0.11c-0.16-0.16-0.19-0.41-0.05-0.6c0.13-0.18,0.38-0.24,0.58-0.14c0.22,0.12,0.44,0.24,0.66,0.37
			C17.06,14.65,17.07,14.65,17.1,14.67z"/>
		<path class="st0" d="M15.06,10.56c0.02,0,0.06,0,0.1,0.01c0.19,0.06,0.38,0.11,0.57,0.17c0.12,0.04,0.17,0.13,0.14,0.24
			c-0.03,0.1-0.13,0.16-0.24,0.12c-0.19-0.06-0.39-0.12-0.58-0.18c-0.1-0.03-0.15-0.11-0.14-0.2C14.9,10.65,14.95,10.59,15.06,10.56
			z"/>
		<path class="st0" d="M17.04,10.52c0.02-0.05,0.03-0.12,0.06-0.16c0.13-0.16,0.27-0.31,0.4-0.47c0.08-0.09,0.19-0.09,0.27-0.02
			c0.08,0.07,0.09,0.18,0.02,0.27c-0.13,0.16-0.27,0.32-0.41,0.47C17.28,10.73,17.11,10.68,17.04,10.52z"/>
		<path class="st0" d="M15.47,12.12c-0.09,0.03-0.18,0.05-0.27,0.08c-0.11,0.03-0.21-0.03-0.24-0.13c-0.03-0.1,0.01-0.2,0.12-0.23
			c0.19-0.06,0.38-0.11,0.57-0.16c0.1-0.02,0.2,0.05,0.22,0.14c0.02,0.1-0.03,0.19-0.13,0.22C15.65,12.07,15.56,12.09,15.47,12.12z"
			/>
		<path class="st0" d="M18.05,11.38c-0.09,0.02-0.17,0.05-0.26,0.07c-0.11,0.03-0.2-0.03-0.24-0.13c-0.03-0.1,0.01-0.2,0.12-0.23
			c0.19-0.06,0.37-0.11,0.56-0.16c0.11-0.03,0.21,0.04,0.23,0.14c0.02,0.1-0.03,0.19-0.14,0.23c-0.01,0-0.01,0-0.02,0.01
			C18.21,11.34,18.13,11.36,18.05,11.38C18.05,11.39,18.05,11.39,18.05,11.38z"/>
	</g>
</g>
</svg>
