<?xml version="1.0" encoding="utf-8"?>
<!-- Generator: Adobe Illustrator 26.0.1, SVG Export Plug-In . SVG Version: 6.00 Build 0)  -->
<svg version="1.1" id="Layer_1" xmlns="http://www.w3.org/2000/svg" xmlns:xlink="http://www.w3.org/1999/xlink" x="0px" y="0px"
	 viewBox="0 0 24 24" style="enable-background:new 0 0 24 24;" xml:space="preserve">
<style type="text/css">
	.st0{fill:#399CFF;}
	.st1{fill:#B0D7FF;}
</style>
<path class="st0" d="M8,1.5c0.28,0,0.5,0.22,0.5,0.5v20c0,0.28-0.22,0.5-0.5,0.5H2c-0.28,0-0.5-0.22-0.5-0.5V2
	c0-0.28,0.22-0.5,0.5-0.5H8 M8,0H2C0.9,0,0,0.9,0,2v20c0,1.1,0.9,2,2,2h6c1.1,0,2-0.9,2-2V2C10,0.9,9.1,0,8,0L8,0z"/>
<path class="st1" d="M15,1.5c0.28,0,0.5,0.22,0.5,0.5v20c0,0.28-0.22,0.5-0.5,0.5h-1c-0.28,0-0.5-0.22-0.5-0.5V2
	c0-0.28,0.22-0.5,0.5-0.5H15 M15,0h-1c-1.1,0-2,0.9-2,2v20c0,1.1,0.9,2,2,2h1c1.1,0,2-0.9,2-2V2C17,0.9,16.1,0,15,0L15,0z"/>
<path class="st1" d="M22,1.5c0.28,0,0.5,0.22,0.5,0.5v20c0,0.28-0.22,0.5-0.5,0.5h-1c-0.28,0-0.5-0.22-0.5-0.5V2
	c0-0.28,0.22-0.5,0.5-0.5H22 M22,0h-1c-1.1,0-2,0.9-2,2v20c0,1.1,0.9,2,2,2h1c1.1,0,2-0.9,2-2V2C24,0.9,23.1,0,22,0L22,0z"/>
</svg>
