<?xml version="1.0" encoding="utf-8"?>
<!-- Generator: Adobe Illustrator 26.0.1, SVG Export Plug-In . SVG Version: 6.00 Build 0)  -->
<svg version="1.1" id="Layer_1" xmlns="http://www.w3.org/2000/svg" xmlns:xlink="http://www.w3.org/1999/xlink" x="0px" y="0px"
	 viewBox="0 0 24 24" style="enable-background:new 0 0 24 24;" xml:space="preserve">
<style type="text/css">
	.st0{fill:#399CFF;}
</style>
<g>
	<g>
		<path class="st0" d="M9.25,12.06c-0.41,0-0.77-0.1-1.09-0.29c-0.32-0.19-0.58-0.45-0.77-0.77c-0.19-0.32-0.28-0.67-0.28-1.07
			c0-0.39,0.09-0.75,0.28-1.07C7.58,8.55,7.83,8.29,8.16,8.1c0.32-0.19,0.69-0.28,1.09-0.28c0.4,0,0.76,0.09,1.08,0.28
			c0.32,0.19,0.57,0.44,0.76,0.77c0.19,0.32,0.28,0.68,0.28,1.07c0,0.39-0.09,0.75-0.28,1.07c-0.19,0.32-0.44,0.57-0.76,0.77
			C10.01,11.96,9.65,12.06,9.25,12.06z M7.98,16.05l6.57-8.1h1.52l-6.57,8.1H7.98z M9.24,10.96c0.22,0,0.4-0.05,0.54-0.15
			c0.14-0.1,0.26-0.22,0.33-0.38c0.08-0.16,0.11-0.32,0.11-0.49c0-0.18-0.04-0.35-0.11-0.5c-0.08-0.15-0.19-0.28-0.33-0.38
			c-0.15-0.1-0.33-0.15-0.54-0.15c-0.2,0-0.38,0.05-0.53,0.15c-0.15,0.1-0.26,0.23-0.34,0.39C8.29,9.6,8.25,9.77,8.25,9.94
			c0,0.17,0.04,0.33,0.12,0.49c0.08,0.16,0.19,0.29,0.34,0.39C8.86,10.91,9.04,10.96,9.24,10.96z M14.76,16.18
			c-0.4,0-0.76-0.1-1.08-0.29c-0.32-0.19-0.58-0.45-0.77-0.77c-0.19-0.32-0.28-0.67-0.28-1.07s0.09-0.75,0.28-1.07
			c0.19-0.32,0.44-0.58,0.77-0.77c0.32-0.19,0.68-0.28,1.08-0.28c0.41,0,0.77,0.09,1.09,0.28c0.32,0.19,0.57,0.44,0.76,0.77
			c0.19,0.32,0.28,0.68,0.28,1.07s-0.09,0.75-0.28,1.07c-0.19,0.32-0.44,0.57-0.76,0.77S15.17,16.18,14.76,16.18z M14.76,15.08
			c0.21,0,0.39-0.05,0.54-0.15c0.15-0.1,0.26-0.22,0.34-0.38c0.08-0.16,0.11-0.32,0.11-0.49c0-0.18-0.04-0.35-0.11-0.5
			c-0.08-0.15-0.19-0.28-0.34-0.38c-0.15-0.1-0.33-0.15-0.54-0.15c-0.2,0-0.38,0.05-0.53,0.15c-0.15,0.1-0.26,0.23-0.34,0.39
			c-0.08,0.16-0.12,0.32-0.12,0.49c0,0.17,0.04,0.33,0.12,0.49c0.08,0.16,0.19,0.29,0.34,0.39C14.38,15.03,14.56,15.08,14.76,15.08z
			"/>
	</g>
	<g>
		<path class="st0" d="M12,24C5.38,24,0,18.62,0,12C0,5.38,5.38,0,12,0c0.41,0,0.75,0.34,0.75,0.75S12.41,1.5,12,1.5
			C6.21,1.5,1.5,6.21,1.5,12c0,5.79,4.71,10.5,10.5,10.5c5.79,0,10.5-4.71,10.5-10.5c0-0.41,0.34-0.75,0.75-0.75S24,11.59,24,12
			C24,18.62,18.62,24,12,24z"/>
	</g>
</g>
</svg>
