<?xml version="1.0" encoding="utf-8"?>
<!-- Generator: Adobe Illustrator 26.0.1, SVG Export Plug-In . SVG Version: 6.00 Build 0)  -->
<svg version="1.1" id="Layer_1" xmlns="http://www.w3.org/2000/svg" xmlns:xlink="http://www.w3.org/1999/xlink" x="0px" y="0px"
	 viewBox="0 0 24 24" style="enable-background:new 0 0 24 24;" xml:space="preserve">
<style type="text/css">
	.st0{fill:#399CFF;}
	.st1{fill:#B0D7FF;}
</style>
<g>
	<g>
		<path class="st0" d="M1.51,13.61c-0.3,0-0.56-0.08-0.79-0.24s-0.4-0.39-0.53-0.68C0.06,12.4,0,12.06,0,11.67
			c0-0.39,0.06-0.73,0.19-1.02s0.3-0.52,0.53-0.68c0.23-0.16,0.49-0.24,0.79-0.24c0.31,0,0.57,0.08,0.8,0.24
			c0.23,0.16,0.4,0.39,0.53,0.68c0.13,0.29,0.19,0.63,0.19,1.02c0,0.39-0.06,0.73-0.19,1.02c-0.13,0.29-0.3,0.52-0.53,0.68
			C2.08,13.53,1.82,13.61,1.51,13.61z M1.52,12.91c0.15,0,0.29-0.05,0.39-0.15c0.11-0.1,0.19-0.24,0.25-0.42
			c0.06-0.19,0.09-0.41,0.09-0.67c0-0.26-0.03-0.48-0.09-0.66c-0.06-0.18-0.14-0.32-0.25-0.42c-0.11-0.1-0.24-0.15-0.4-0.15
			c-0.15,0-0.29,0.05-0.39,0.15c-0.11,0.1-0.19,0.24-0.25,0.42c-0.06,0.18-0.09,0.4-0.09,0.66c0,0.26,0.03,0.48,0.09,0.66
			c0.06,0.19,0.14,0.33,0.25,0.43C1.23,12.86,1.36,12.91,1.52,12.91z"/>
		<path class="st0" d="M3.49,13.55v-0.61l1.01-1.04c0.2-0.21,0.35-0.37,0.45-0.49c0.1-0.12,0.17-0.22,0.21-0.3
			c0.04-0.08,0.06-0.16,0.06-0.24c0-0.14-0.04-0.25-0.13-0.33c-0.09-0.08-0.2-0.12-0.34-0.12c-0.14,0-0.26,0.04-0.37,0.12
			c-0.11,0.08-0.19,0.2-0.24,0.36L3.47,10.7c0.04-0.2,0.12-0.37,0.25-0.51C3.85,10.04,4,9.93,4.18,9.85
			c0.18-0.08,0.37-0.12,0.57-0.12c0.25,0,0.47,0.04,0.66,0.13c0.19,0.09,0.33,0.21,0.44,0.37c0.1,0.16,0.16,0.34,0.16,0.56
			c0,0.13-0.02,0.27-0.07,0.4c-0.05,0.13-0.12,0.26-0.21,0.39c-0.1,0.13-0.22,0.28-0.37,0.43L4.49,12.9h1.55v0.66H3.49z"/>
		<path class="st0" d="M7.85,11.55V10.8H8.6v0.76H7.85z M7.85,13.55V12.8H8.6v0.76H7.85z"/>
		<path class="st0" d="M11.93,13.61c-0.3,0-0.56-0.08-0.79-0.24s-0.4-0.39-0.53-0.68c-0.13-0.29-0.19-0.63-0.19-1.02
			c0-0.39,0.06-0.73,0.19-1.02s0.3-0.52,0.53-0.68c0.23-0.16,0.49-0.24,0.79-0.24c0.31,0,0.57,0.08,0.8,0.24
			c0.23,0.16,0.4,0.39,0.53,0.68c0.13,0.29,0.19,0.63,0.19,1.02c0,0.39-0.06,0.73-0.19,1.02c-0.13,0.29-0.3,0.52-0.53,0.68
			C12.5,13.53,12.23,13.61,11.93,13.61z M11.94,12.91c0.15,0,0.29-0.05,0.39-0.15c0.11-0.1,0.19-0.24,0.25-0.42
			c0.06-0.19,0.09-0.41,0.09-0.67c0-0.26-0.03-0.48-0.09-0.66c-0.06-0.18-0.14-0.32-0.25-0.42c-0.11-0.1-0.24-0.15-0.4-0.15
			c-0.15,0-0.29,0.05-0.39,0.15c-0.11,0.1-0.19,0.24-0.25,0.42c-0.06,0.18-0.09,0.4-0.09,0.66c0,0.26,0.03,0.48,0.09,0.66
			c0.06,0.19,0.14,0.33,0.25,0.43C11.64,12.86,11.78,12.91,11.94,12.91z"/>
		<path class="st0" d="M15.52,13.55v-0.81h-1.66v-0.66l1.61-2.3h0.83v2.3h0.58v0.66H16.3v0.81H15.52z M14.43,12.37l-0.15-0.28h1.24
			V10.4l0.2,0.06L14.43,12.37z"/>
	</g>
	<g>
		<polygon class="st1" points="21.04,8.34 21.04,11.39 22.05,11.39 22.05,8.34 23.29,9.57 24,8.86 21.55,6.41 19.1,8.86 19.81,9.57 
					"/>
		<polygon class="st0" points="22.05,15.66 22.05,12.61 21.04,12.61 21.04,15.66 19.81,14.43 19.1,15.14 21.55,17.59 24,15.14 
			23.29,14.43 		"/>
	</g>
</g>
</svg>
