<?xml version="1.0" encoding="utf-8"?>
<!-- Generator: Adobe Illustrator 26.0.1, SVG Export Plug-In . SVG Version: 6.00 Build 0)  -->
<svg version="1.1" id="Layer_1" xmlns="http://www.w3.org/2000/svg" xmlns:xlink="http://www.w3.org/1999/xlink" x="0px" y="0px"
	 viewBox="0 0 24 24" style="enable-background:new 0 0 24 24;" xml:space="preserve">
<style type="text/css">
	.st0{fill:#B0D7FF;}
	.st1{fill:#399CFF;}
</style>
<path class="st0" d="M24,12c0,1.93-1.57,3.5-3.5,3.5h-5c-0.84,0-1.61-0.3-2.21-0.79c0.31-0.15,0.59-0.35,0.83-0.59
	c0.12-0.11,0.22-0.24,0.32-0.37c0.01-0.01,0.02-0.03,0.02-0.04c0.3,0.18,0.66,0.29,1.04,0.29h5c1.1,0,2-0.9,2-2s-0.9-2-2-2h-5
	c-0.38,0-0.74,0.11-1.04,0.29c0-0.01-0.01-0.03-0.02-0.04c-0.1-0.13-0.2-0.26-0.32-0.37c-0.24-0.24-0.52-0.44-0.83-0.59
	c0.6-0.49,1.37-0.79,2.21-0.79h5C22.43,8.5,24,10.07,24,12z"/>
<path class="st1" d="M14.46,10.29c0-0.01-0.01-0.03-0.02-0.04c-0.1-0.13-0.2-0.26-0.32-0.37c-0.24-0.24-0.52-0.44-0.83-0.59
	C12.9,9.11,12.46,9,12,9s-0.9,0.11-1.29,0.29C10.11,8.8,9.34,8.5,8.5,8.5h-5C1.57,8.5,0,10.07,0,12s1.57,3.5,3.5,3.5h5
	c0.84,0,1.61-0.3,2.21-0.79C11.1,14.9,11.53,15,12,15c0.46,0,0.9-0.11,1.29-0.29c0.31-0.15,0.59-0.35,0.83-0.59
	c0.12-0.11,0.22-0.24,0.32-0.37c0.01-0.01,0.02-0.03,0.02-0.04C14.8,13.23,15,12.63,15,12S14.8,10.77,14.46,10.29z M8.5,14h-5
	c-1.1,0-2-0.9-2-2s0.9-2,2-2h5c0.38,0,0.74,0.11,1.04,0.29C9.2,10.77,9,11.37,9,12s0.2,1.23,0.54,1.71C9.24,13.89,8.88,14,8.5,14z
	 M13.21,12.89c-0.04,0.06-0.09,0.12-0.14,0.17c-0.21,0.2-0.47,0.34-0.74,0.4c-0.11,0.03-0.22,0.04-0.33,0.04s-0.22-0.01-0.33-0.04
	c-0.36-0.08-0.68-0.28-0.89-0.59C10.6,12.62,10.5,12.31,10.5,12s0.1-0.62,0.29-0.89c0.04-0.06,0.09-0.12,0.14-0.17
	c0.21-0.2,0.47-0.34,0.74-0.4c0.11-0.03,0.22-0.04,0.33-0.04s0.22,0.01,0.33,0.04c0.27,0.06,0.53,0.2,0.73,0.4
	c0.06,0.05,0.11,0.11,0.16,0.19c0.18,0.25,0.28,0.56,0.28,0.87S13.4,12.62,13.21,12.89z"/>
<g>
	<path class="st1" d="M6.41,12.75H4.3c-0.41,0-0.75-0.34-0.75-0.75s0.34-0.75,0.75-0.75h2.1c0.41,0,0.75,0.34,0.75,0.75
		S6.82,12.75,6.41,12.75z"/>
</g>
<g>
	<path class="st0" d="M19.7,12.75h-2.1c-0.41,0-0.75-0.34-0.75-0.75s0.34-0.75,0.75-0.75h2.1c0.41,0,0.75,0.34,0.75,0.75
		S20.11,12.75,19.7,12.75z"/>
</g>
</svg>
