<?xml version="1.0" encoding="utf-8"?>
<!-- Generator: Adobe Illustrator 26.0.1, SVG Export Plug-In . SVG Version: 6.00 Build 0)  -->
<svg version="1.1" id="Layer_1" xmlns="http://www.w3.org/2000/svg" xmlns:xlink="http://www.w3.org/1999/xlink" x="0px" y="0px"
	 viewBox="0 0 24 24" style="enable-background:new 0 0 24 24;" xml:space="preserve">
<style type="text/css">
	.st0{fill:#399CFF;}
	.st1{fill:#B0D7FF;}
</style>
<g>
	<g>
		<path class="st0" d="M21.64,9.94h-6.89C14.34,9.94,14,9.6,14,9.19s0.34-0.75,0.75-0.75h6.89c0.41,0,0.75,0.34,0.75,0.75
			S22.05,9.94,21.64,9.94z"/>
	</g>
	<g>
		<path class="st1" d="M23.5,12.69h-9c-0.28,0-0.5-0.22-0.5-0.5s0.22-0.5,0.5-0.5h9c0.28,0,0.5,0.22,0.5,0.5S23.78,12.69,23.5,12.69
			z"/>
	</g>
	<g>
		<path class="st1" d="M21.39,14.69H14.5c-0.28,0-0.5-0.22-0.5-0.5s0.22-0.5,0.5-0.5h6.89c0.28,0,0.5,0.22,0.5,0.5
			S21.67,14.69,21.39,14.69z"/>
	</g>
	<path class="st0" d="M9.5,8.5c0.55,0,1,0.45,1,1v5c0,0.55-0.45,1-1,1h-7c-0.55,0-1-0.45-1-1v-5c0-0.55,0.45-1,1-1H9.5 M9.5,7h-7
		C1.12,7,0,8.12,0,9.5v5C0,15.88,1.12,17,2.5,17h7c1.38,0,2.5-1.12,2.5-2.5v-5C12,8.12,10.88,7,9.5,7L9.5,7z"/>
	<g>
		<path class="st0" d="M1.68,15.2l-1.06-1.06l2.22-2.22c0.55-0.55,1.5-0.55,2.05,0l1.62-1.7c0.56-0.56,1.48-0.56,2.05,0l3.13,3.13
			l-1.06,1.06L7.5,11.28l-1.62,1.7c-0.56,0.56-1.48,0.56-2.05,0L1.68,15.2z"/>
	</g>
</g>
</svg>
