<?xml version="1.0" encoding="utf-8"?>
<!-- Generator: Adobe Illustrator 26.0.1, SVG Export Plug-In . SVG Version: 6.00 Build 0)  -->
<svg version="1.1" id="Layer_1" xmlns="http://www.w3.org/2000/svg" xmlns:xlink="http://www.w3.org/1999/xlink" x="0px" y="0px"
	 viewBox="0 0 24 24" style="enable-background:new 0 0 24 24;" xml:space="preserve">
<style type="text/css">
	.st0{fill:#399CFF;}
</style>
<g>
	<path class="st0" d="M12,21.8c-0.4,0-0.8-0.3-0.8-0.8V3c0-0.4,0.3-0.8,0.8-0.8s0.8,0.3,0.8,0.8v18C12.8,21.4,12.4,21.8,12,21.8z"/>
</g>
<g>
	<path class="st0" d="M21.3,20.7c-0.4,0-0.8-0.1-1.1-0.2l-4-1.8c-1-0.4-1.6-1.4-1.6-2.5V7.9c0-1.1,0.6-2.1,1.6-2.5l4-1.8
		C21,3.2,22,3.3,22.7,3.8C23.5,4.3,24,5.1,24,6.1v11.8c0,0.9-0.5,1.8-1.3,2.3C22.3,20.5,21.8,20.7,21.3,20.7z M21.3,4.8
		c-0.2,0-0.3,0-0.5,0.1l-4,1.8C16.3,6.9,16,7.4,16,7.9v8.3c0,0.5,0.3,0.9,0.7,1.1l4,1.8c0.4,0.2,0.8,0.1,1.2-0.1s0.6-0.6,0.6-1V6.1
		c0-0.4-0.2-0.8-0.6-1C21.7,4.9,21.5,4.8,21.3,4.8z"/>
</g>
<g>
	<path class="st0" d="M2.7,20.7c-0.5,0-1-0.1-1.5-0.4C0.5,19.7,0,18.9,0,17.9V6.1c0-0.9,0.5-1.8,1.3-2.3C2,3.3,3,3.2,3.9,3.6l4,1.8
		c1,0.4,1.6,1.4,1.6,2.5v8.3c0,1.1-0.6,2.1-1.6,2.5l-4,1.8C3.5,20.6,3.1,20.7,2.7,20.7z M2.7,4.8C2.5,4.8,2.3,4.9,2.1,5
		c-0.4,0.2-0.6,0.6-0.6,1v11.8c0,0.4,0.2,0.8,0.6,1c0.4,0.2,0.8,0.3,1.2,0.1l4-1.8C7.7,17.1,8,16.6,8,16.1V7.9
		c0-0.5-0.3-0.9-0.7-1.1l-4-1.8C3.1,4.9,2.9,4.8,2.7,4.8z"/>
</g>
</svg>
