<svg width="24" height="24" viewBox="0 0 24 24" fill="none" xmlns="http://www.w3.org/2000/svg">
<path d="M15 7L10.1094 3.7396C9.4376 3.29173 8.5624 3.29173 7.8906 3.7396L3.8906 6.40627C3.3342 6.7772 3 7.40166 3 8.07037V19.382C3 20.1253 3.78231 20.6088 4.44721 20.2764L9 18M15 7H19C20.1046 7 21 7.89543 21 9V19C21 20.1046 20.1046 21 19 21H15.4721C15.1616 21 14.8554 20.9277 14.5777 20.7889L9 18M15 7V9M9 18V16M15 12V16M9 9V13M15 19V20.5M9 3.5V6" stroke="#0B0C0E" stroke-width="1.4" stroke-linecap="round"/>
</svg>
