<svg width="48" height="48" viewBox="0 0 48 48" fill="none" xmlns="http://www.w3.org/2000/svg">
    <path clip-rule="evenodd" d="M24.0658 7.16211H23.9346C20.2189 7.1621 17.3444 7.16209 15.1101 7.46249C12.8384 7.76791 11.103 8.39763 9.74933 9.75129C8.39567 11.1049 7.76596 12.8404 7.46054 15.112C7.16014 17.3464 7.16015 20.2208 7.16016 23.9365V24.0677C7.16015 27.7834 7.16014 30.6579 7.46054 32.8922C7.76596 35.1639 8.39567 36.8993 9.74933 38.2529C11.103 39.6066 12.8384 40.2363 15.1101 40.5417C17.3444 40.8421 20.2189 40.8421 23.9346 40.8421H24.0657C27.7814 40.8421 30.6559 40.8421 32.8903 40.5417C35.1619 40.2363 36.8973 39.6066 38.251 38.2529C39.6046 36.8993 40.2344 35.1639 40.5398 32.8922C40.8402 30.6578 40.8402 27.7834 40.8402 24.0677V23.9366C40.8402 20.2208 40.8402 17.3464 40.5398 15.112C40.2344 12.8404 39.6046 11.1049 38.251 9.75129C36.8973 8.39763 35.1619 7.76791 32.8903 7.46249C30.6559 7.16209 27.7815 7.1621 24.0658 7.16211ZM10.9373 10.9392C11.9268 9.94974 13.2485 9.40788 15.3339 9.12751C17.4434 8.84389 20.2052 8.84211 24.0002 8.84211C27.7951 8.84211 30.5569 8.84389 32.6664 9.12751C34.7518 9.40788 36.0736 9.94974 37.063 10.9392C38.0525 11.9287 38.5944 13.2505 38.8748 15.3359C39.1584 17.4454 39.1602 20.2071 39.1602 24.0021C39.1602 27.7971 39.1584 30.5588 38.8748 32.6684C38.5944 34.7537 38.0525 36.0755 37.063 37.065C36.0736 38.0545 34.7518 38.5963 32.6664 38.8767C30.5569 39.1603 27.7951 39.1621 24.0002 39.1621C20.2052 39.1621 17.4434 39.1603 15.3339 38.8767C13.2485 38.5963 11.9268 38.0545 10.9373 37.065C9.94779 36.0755 9.40593 34.7537 9.12556 32.6684C8.84194 30.5588 8.84016 27.7971 8.84016 24.0021C8.84016 20.2071 8.84194 17.4454 9.12556 15.3359C9.40593 13.2505 9.94779 11.9287 10.9373 10.9392ZM20.8002 15.1621L20.741 15.1621H20.7409C20.0375 15.1621 19.4186 15.162 18.9204 15.2364C18.3743 15.318 17.8558 15.5038 17.4444 15.9609C17.0444 16.4053 16.8929 16.9438 16.8248 17.5061C16.7601 18.0409 16.7601 18.7121 16.7602 19.5062L16.7602 19.5577V20.4021C16.7602 20.866 17.1362 21.2421 17.6002 21.2421C18.0641 21.2421 18.4402 20.866 18.4402 20.4021V19.5577C18.4402 18.6982 18.4416 18.1297 18.4927 17.7079C18.5418 17.3019 18.6245 17.161 18.6932 17.0847C18.7504 17.0212 18.8433 16.9466 19.1686 16.898C19.5279 16.8443 20.0196 16.8421 20.8002 16.8421H23.1602V31.1621H20.0002C19.5362 31.1621 19.1602 31.5382 19.1602 32.0021C19.1602 32.466 19.5362 32.8421 20.0002 32.8421H28.8002C29.2641 32.8421 29.6402 32.466 29.6402 32.0021C29.6402 31.5382 29.2641 31.1621 28.8002 31.1621H24.8402V16.8421H27.2002C27.9807 16.8421 28.4724 16.8443 28.8317 16.898C29.157 16.9466 29.2499 17.0212 29.3072 17.0847C29.3758 17.161 29.4585 17.3019 29.5077 17.7079C29.5587 18.1297 29.5602 18.6982 29.5602 19.5577V20.4021C29.5602 20.866 29.9362 21.2421 30.4002 21.2421C30.8641 21.2421 31.2402 20.866 31.2402 20.4021V19.5062C31.2402 18.7121 31.2402 18.0409 31.1755 17.5061C31.1075 16.9438 30.9559 16.4053 30.5559 15.9609C30.1445 15.5038 29.626 15.318 29.0799 15.2364C28.5817 15.162 27.9628 15.1621 27.2594 15.1621H27.2594L20.8002 15.1621Z" fill="#399CFF"/>
    <path d="M24.0658 7.16211H23.9346C20.2189 7.1621 17.3444 7.16209 15.1101 7.46249C12.8384 7.76791 11.103 8.39763 9.74933 9.75129C8.39567 11.1049 7.76596 12.8404 7.46054 15.112C7.16014 17.3464 7.16015 20.2208 7.16016 23.9365V24.0677C7.16015 27.7834 7.16014 30.6579 7.46054 32.8922C7.76596 35.1639 8.39567 36.8993 9.74933 38.2529C11.103 39.6066 12.8384 40.2363 15.1101 40.5417C17.3444 40.8421 20.2189 40.8421 23.9346 40.8421H24.0657C27.7814 40.8421 30.6559 40.8421 32.8903 40.5417C35.1619 40.2363 36.8973 39.6066 38.251 38.2529C39.6046 36.8993 40.2344 35.1639 40.5398 32.8922C40.8402 30.6578 40.8402 27.7834 40.8402 24.0677V23.9366C40.8402 20.2208 40.8402 17.3464 40.5398 15.112C40.2344 12.8404 39.6046 11.1049 38.251 9.75129C36.8973 8.39763 35.1619 7.76791 32.8903 7.46249C30.6559 7.16209 27.7815 7.1621 24.0658 7.16211ZM10.9373 10.9392C11.9268 9.94974 13.2485 9.40788 15.3339 9.12751C17.4434 8.84389 20.2052 8.84211 24.0002 8.84211C27.7951 8.84211 30.5569 8.84389 32.6664 9.12751C34.7518 9.40788 36.0736 9.94974 37.063 10.9392C38.0525 11.9287 38.5944 13.2505 38.8748 15.3359C39.1584 17.4454 39.1602 20.2071 39.1602 24.0021C39.1602 27.7971 39.1584 30.5588 38.8748 32.6684C38.5944 34.7537 38.0525 36.0755 37.063 37.065C36.0736 38.0545 34.7518 38.5963 32.6664 38.8767C30.5569 39.1603 27.7951 39.1621 24.0002 39.1621C20.2052 39.1621 17.4434 39.1603 15.3339 38.8767C13.2485 38.5963 11.9268 38.0545 10.9373 37.065C9.94779 36.0755 9.40593 34.7537 9.12556 32.6684C8.84194 30.5588 8.84016 27.7971 8.84016 24.0021C8.84016 20.2071 8.84194 17.4454 9.12556 15.3359C9.40593 13.2505 9.94779 11.9287 10.9373 10.9392ZM20.8002 15.1621L20.741 15.1621H20.7409C20.0375 15.1621 19.4186 15.162 18.9204 15.2364C18.3743 15.318 17.8558 15.5038 17.4444 15.9609C17.0444 16.4053 16.8929 16.9438 16.8248 17.5061C16.7601 18.0409 16.7601 18.7121 16.7602 19.5062L16.7602 19.5577V20.4021C16.7602 20.866 17.1362 21.2421 17.6002 21.2421C18.0641 21.2421 18.4402 20.866 18.4402 20.4021V19.5577C18.4402 18.6982 18.4416 18.1297 18.4927 17.7079C18.5418 17.3019 18.6245 17.161 18.6932 17.0847C18.7504 17.0212 18.8433 16.9466 19.1686 16.898C19.5279 16.8443 20.0196 16.8421 20.8002 16.8421H23.1602V31.1621H20.0002C19.5362 31.1621 19.1602 31.5382 19.1602 32.0021C19.1602 32.466 19.5362 32.8421 20.0002 32.8421H28.8002C29.2641 32.8421 29.6402 32.466 29.6402 32.0021C29.6402 31.5382 29.2641 31.1621 28.8002 31.1621H24.8402V16.8421H27.2002C27.9807 16.8421 28.4724 16.8443 28.8317 16.898C29.157 16.9466 29.2499 17.0212 29.3072 17.0847C29.3758 17.161 29.4585 17.3019 29.5077 17.7079C29.5587 18.1297 29.5602 18.6982 29.5602 19.5577V20.4021C29.5602 20.866 29.9362 21.2421 30.4002 21.2421C30.8641 21.2421 31.2402 20.866 31.2402 20.4021V19.5062C31.2402 18.7121 31.2402 18.0409 31.1755 17.5061C31.1075 16.9438 30.9559 16.4053 30.5559 15.9609C30.1445 15.5038 29.626 15.318 29.0799 15.2364C28.5817 15.162 27.9628 15.1621 27.2594 15.1621H27.2594L20.8002 15.1621Z" fill="#399CFF"/>
</svg>
