<?xml version="1.0" encoding="utf-8"?>
<!-- Generator: Adobe Illustrator 26.0.1, SVG Export Plug-In . SVG Version: 6.00 Build 0)  -->
<svg version="1.1" id="Layer_1" xmlns="http://www.w3.org/2000/svg" xmlns:xlink="http://www.w3.org/1999/xlink" x="0px" y="0px"
	 viewBox="0 0 24 24" style="enable-background:new 0 0 24 24;" xml:space="preserve">
<style type="text/css">
	.st0{fill:#399CFF;}
</style>
<g>
	<g>
		<path class="st0" d="M12,4.5c1.38,0,2.5,1.12,2.5,2.5S13.38,9.5,12,9.5S9.5,8.38,9.5,7S10.62,4.5,12,4.5 M12,3C9.79,3,8,4.79,8,7
			s1.79,4,4,4s4-1.79,4-4S14.21,3,12,3L12,3z"/>
	</g>
	<g>
		<path class="st0" d="M17.27,14.75H6.73c-0.41,0-0.75-0.34-0.75-0.75s0.34-0.75,0.75-0.75h10.54c0.41,0,0.75,0.34,0.75,0.75
			S17.68,14.75,17.27,14.75z"/>
	</g>
	<g>
		<path class="st0" d="M21.51,17.5H2.49c-0.28,0-0.5-0.22-0.5-0.5s0.22-0.5,0.5-0.5h19.02c0.28,0,0.5,0.22,0.5,0.5
			S21.79,17.5,21.51,17.5z"/>
	</g>
	<g>
		<path class="st0" d="M17.48,19.5H6.52c-0.28,0-0.5-0.22-0.5-0.5s0.22-0.5,0.5-0.5h10.95c0.28,0,0.5,0.22,0.5,0.5
			S17.75,19.5,17.48,19.5z"/>
	</g>
	<g>
		<path class="st0" d="M14.11,21.5H9.89c-0.28,0-0.5-0.22-0.5-0.5s0.22-0.5,0.5-0.5h4.23c0.28,0,0.5,0.22,0.5,0.5
			S14.39,21.5,14.11,21.5z"/>
	</g>
</g>
</svg>
