<?xml version="1.0" encoding="utf-8"?>
<!-- Generator: Adobe Illustrator 26.0.1, SVG Export Plug-In . SVG Version: 6.00 Build 0)  -->
<svg version="1.1" id="Layer_1" xmlns="http://www.w3.org/2000/svg" xmlns:xlink="http://www.w3.org/1999/xlink" x="0px" y="0px"
	 viewBox="0 0 24 24" style="enable-background:new 0 0 24 24;" xml:space="preserve">
<style type="text/css">
	.st0{fill:#399CFF;}
</style>
<g>
	<path class="st0" d="M8,1.5c0.83,0,1.5,0.67,1.5,1.5v5c0,0.83-0.67,1.5-1.5,1.5H3C2.17,9.5,1.5,8.83,1.5,8V3
		c0-0.83,0.67-1.5,1.5-1.5H8 M8,0H3C1.34,0,0,1.34,0,3v5c0,1.66,1.34,3,3,3h5c1.66,0,3-1.34,3-3V3C11,1.34,9.66,0,8,0L8,0z"/>
</g>
<g>
	<path class="st0" d="M21,14.5c0.83,0,1.5,0.67,1.5,1.5v5c0,0.83-0.67,1.5-1.5,1.5h-5c-0.83,0-1.5-0.67-1.5-1.5v-5
		c0-0.83,0.67-1.5,1.5-1.5H21 M21,13h-5c-1.66,0-3,1.34-3,3v5c0,1.66,1.34,3,3,3h5c1.66,0,3-1.34,3-3v-5C24,14.34,22.66,13,21,13
		L21,13z"/>
</g>
<g>
	<path class="st0" d="M21,1.5c0.83,0,1.5,0.67,1.5,1.5v5c0,0.83-0.67,1.5-1.5,1.5h-5c-0.83,0-1.5-0.67-1.5-1.5V3
		c0-0.83,0.67-1.5,1.5-1.5H21 M21,0h-5c-1.66,0-3,1.34-3,3v5c0,1.66,1.34,3,3,3h5c1.66,0,3-1.34,3-3V3C24,1.34,22.66,0,21,0L21,0z"
		/>
</g>
<g>
	<path class="st0" d="M8,14.5c0.83,0,1.5,0.67,1.5,1.5v5c0,0.83-0.67,1.5-1.5,1.5H3c-0.83,0-1.5-0.67-1.5-1.5v-5
		c0-0.83,0.67-1.5,1.5-1.5H8 M8,13H3c-1.66,0-3,1.34-3,3v5c0,1.66,1.34,3,3,3h5c1.66,0,3-1.34,3-3v-5C11,14.34,9.66,13,8,13L8,13z"
		/>
</g>
<g>
	<path class="st0" d="M1.37,8.6L0.31,7.54L3.15,4.7c0.49-0.49,1.28-0.49,1.77,0l0.43,0.43l1.92-1.92c0.49-0.49,1.28-0.49,1.77,0
		l1.67,1.67L9.64,5.94L8.15,4.45L6.23,6.37c-0.49,0.49-1.28,0.49-1.77,0L4.03,5.94L1.37,8.6z"/>
</g>
<g>
	<path class="st0" d="M14.39,8.6l-1.06-1.06l2.84-2.84c0.49-0.49,1.28-0.49,1.77,0l0.43,0.43l1.92-1.92
		c0.24-0.24,0.55-0.37,0.88-0.37c0,0,0,0,0,0c0.33,0,0.65,0.13,0.88,0.37l1.67,1.67l-1.06,1.06l-1.49-1.49l-1.92,1.92
		c-0.24,0.24-0.6,0.39-0.89,0.37c-0.33,0-0.65-0.13-0.88-0.37l-0.43-0.43L14.39,8.6z"/>
</g>
<g>
	<path class="st0" d="M1.37,22.26L0.31,21.2l2.84-2.84c0.49-0.49,1.28-0.49,1.77,0l0.43,0.43l1.92-1.92c0.49-0.49,1.28-0.49,1.77,0
		l1.67,1.67L9.64,19.6l-1.49-1.49l-1.92,1.92c-0.49,0.49-1.28,0.49-1.77,0L4.03,19.6L1.37,22.26z"/>
</g>
<g>
	<path class="st0" d="M14.39,22.26l-1.06-1.06l2.84-2.84c0.49-0.49,1.28-0.49,1.77,0l0.43,0.43l1.92-1.92
		c0.24-0.24,0.54-0.4,0.89-0.37c0.33,0,0.65,0.13,0.88,0.37l1.67,1.67l-1.06,1.06l-1.49-1.49l-1.92,1.92
		c-0.24,0.24-0.55,0.37-0.88,0.37c0,0,0,0,0,0c-0.33,0-0.65-0.13-0.88-0.37l-0.43-0.43L14.39,22.26z M18.54,18.97L18.54,18.97
		C18.54,18.97,18.54,18.97,18.54,18.97z"/>
</g>
</svg>
