<?xml version="1.0" encoding="utf-8"?>
<!-- Generator: Adobe Illustrator 26.0.1, SVG Export Plug-In . SVG Version: 6.00 Build 0)  -->
<svg version="1.1" id="Layer_1" xmlns="http://www.w3.org/2000/svg" xmlns:xlink="http://www.w3.org/1999/xlink" x="0px" y="0px"
	 viewBox="0 0 24 24" style="enable-background:new 0 0 24 24;" xml:space="preserve">
<style type="text/css">
	.st0{fill:#399CFF;}
	.st1{fill:#B0D7FF;}
</style>
<g>
	<path class="st0" d="M19,1.5c0.83,0,1.5,0.67,1.5,1.5v18c0,0.83-0.67,1.5-1.5,1.5H5c-0.83,0-1.5-0.67-1.5-1.5V3
		c0-0.83,0.67-1.5,1.5-1.5H19 M19,0H5C3.34,0,2,1.34,2,3v18c0,1.66,1.34,3,3,3h14c1.66,0,3-1.34,3-3V3C22,1.34,20.66,0,19,0L19,0z"
		/>
</g>
<g>
	<g>
		<path class="st0" d="M14.01,14.5H6.98c-0.41,0-0.75-0.34-0.75-0.75S6.56,13,6.98,13h7.03c0.41,0,0.75,0.34,0.75,0.75
			S14.42,14.5,14.01,14.5z"/>
	</g>
	<g>
		<path class="st1" d="M17.27,17.25H6.73c-0.28,0-0.5-0.22-0.5-0.5s0.22-0.5,0.5-0.5h10.55c0.28,0,0.5,0.22,0.5,0.5
			S17.55,17.25,17.27,17.25z"/>
	</g>
	<g>
		<path class="st1" d="M13.34,19.25H6.73c-0.28,0-0.5-0.22-0.5-0.5s0.22-0.5,0.5-0.5h6.62c0.28,0,0.5,0.22,0.5,0.5
			S13.62,19.25,13.34,19.25z"/>
	</g>
	<g>
		<path class="st0" d="M9.23,6.25c0.83,0,1.5,0.67,1.5,1.5s-0.67,1.5-1.5,1.5s-1.5-0.67-1.5-1.5S8.4,6.25,9.23,6.25 M9.23,4.75
			c-1.66,0-3,1.34-3,3s1.34,3,3,3s3-1.34,3-3S10.88,4.75,9.23,4.75L9.23,4.75z"/>
	</g>
</g>
</svg>
