<?xml version="1.0" encoding="utf-8"?>
<!-- Generator: Adobe Illustrator 26.0.1, SVG Export Plug-In . SVG Version: 6.00 Build 0)  -->
<svg version="1.1" id="Layer_1" xmlns="http://www.w3.org/2000/svg" xmlns:xlink="http://www.w3.org/1999/xlink" x="0px" y="0px"
	 viewBox="0 0 24 24" style="enable-background:new 0 0 24 24;" xml:space="preserve">
<style type="text/css">
	.st0{fill:#399CFF;}
	.st1{fill:#B0D7FF;}
</style>
<g>
	<g>
		<g>
			<path class="st0" d="M13.78,18.38H3.75C3.34,18.38,3,18.03,3,17.62s0.33-0.75,0.75-0.75h10.03c0.41,0,0.75,0.34,0.75,0.75
				S14.19,18.38,13.78,18.38z"/>
		</g>
		<g>
			<path class="st1" d="M17.04,21.12H3.5c-0.28,0-0.5-0.22-0.5-0.5s0.22-0.5,0.5-0.5h13.55c0.28,0,0.5,0.22,0.5,0.5
				S17.32,21.12,17.04,21.12z"/>
		</g>
		<g>
			<path class="st1" d="M13.11,23.12H3.5c-0.28,0-0.5-0.22-0.5-0.5s0.22-0.5,0.5-0.5h9.62c0.28,0,0.5,0.22,0.5,0.5
				S13.39,23.12,13.11,23.12z"/>
		</g>
	</g>
	<g>
		<path class="st0" d="M19,2.38c0.28,0,0.5,0.22,0.5,0.5v10c0,0.28-0.22,0.5-0.5,0.5H5c-0.28,0-0.5-0.22-0.5-0.5v-10
			c0-0.28,0.22-0.5,0.5-0.5H19 M19,0.88H5c-1.1,0-2,0.9-2,2v10c0,1.1,0.9,2,2,2h14c1.1,0,2-0.9,2-2v-10C21,1.77,20.1,0.88,19,0.88
			L19,0.88z"/>
	</g>
	<g>
		<path class="st0" d="M4.35,11.41l-1.06-1.06l1.49-1.49c0.88-0.88,2.32-0.88,3.2,0l0.21,0.21c0.3,0.3,0.78,0.3,1.08,0l3.75-3.75
			c0.44-0.44,1.02-0.69,1.66-0.66c0.62,0.02,1.21,0.29,1.62,0.75l4.44,4.97l-1.12,1l-4.44-4.96c-0.14-0.16-0.33-0.25-0.55-0.25
			c-0.21-0.01-0.41,0.07-0.56,0.22l-3.75,3.75c-0.88,0.88-2.32,0.88-3.2,0L6.92,9.92c-0.3-0.3-0.78-0.3-1.08,0L4.35,11.41z"/>
	</g>
</g>
</svg>
