<?xml version="1.0" encoding="utf-8"?>
<!-- Generator: Adobe Illustrator 26.0.1, SVG Export Plug-In . SVG Version: 6.00 Build 0)  -->
<svg version="1.1" id="Layer_1" xmlns="http://www.w3.org/2000/svg" xmlns:xlink="http://www.w3.org/1999/xlink" x="0px" y="0px"
	 viewBox="0 0 24 24" style="enable-background:new 0 0 24 24;" xml:space="preserve">
<style type="text/css">
	.st0{fill:#399CFF;}
	.st1{fill:#B0D7FF;}
</style>
<g>
	<path class="st0" d="M16.5,1.5c0.55,0,1,0.45,1,1v19c0,0.55-0.45,1-1,1h-9c-0.55,0-1-0.45-1-1v-19c0-0.55,0.45-1,1-1H16.5 M16.5,0
		h-9C6.12,0,5,1.12,5,2.5v19C5,22.88,6.12,24,7.5,24h9c1.38,0,2.5-1.12,2.5-2.5v-19C19,1.12,17.88,0,16.5,0L16.5,0z"/>
</g>
<g>
	<path class="st0" d="M21.5,5.5c0.55,0,1,0.45,1,1v11c0,0.55-0.45,1-1,1H19v-13H21.5 M21.5,4h-4v16h4c1.38,0,2.5-1.12,2.5-2.5v-11
		C24,5.12,22.88,4,21.5,4L21.5,4z"/>
</g>
<g>
	<path class="st0" d="M5,5.5v13H2.5c-0.55,0-1-0.45-1-1v-11c0-0.55,0.45-1,1-1H5 M6.5,4h-4C1.12,4,0,5.12,0,6.5v11
		C0,18.88,1.12,20,2.5,20h4V4L6.5,4z"/>
</g>
<g>
	<g>
		<path class="st0" d="M13.65,12.5H9.17c-0.41,0-0.75-0.34-0.75-0.75S8.76,11,9.17,11h4.48c0.41,0,0.75,0.34,0.75,0.75
			S14.06,12.5,13.65,12.5z"/>
	</g>
	<g>
		<path class="st1" d="M15.08,15.25H8.92c-0.28,0-0.5-0.22-0.5-0.5s0.22-0.5,0.5-0.5h6.15c0.28,0,0.5,0.22,0.5,0.5
			S15.35,15.25,15.08,15.25z"/>
	</g>
	<g>
		<path class="st1" d="M12.84,17.25H8.92c-0.28,0-0.5-0.22-0.5-0.5s0.22-0.5,0.5-0.5h3.92c0.28,0,0.5,0.22,0.5,0.5
			S13.12,17.25,12.84,17.25z"/>
	</g>
	<g>
		<path class="st1" d="M15.08,19.16H8.92c-0.28,0-0.5-0.22-0.5-0.5s0.22-0.5,0.5-0.5h6.15c0.28,0,0.5,0.22,0.5,0.5
			S15.35,19.16,15.08,19.16z"/>
	</g>
	<path class="st0" d="M10.35,6.93l-0.23-0.07V5.99c0.06,0.02,0.12,0.05,0.18,0.09c0.14,0.1,0.24,0.23,0.31,0.4l0.62-0.28
		c-0.07-0.19-0.17-0.36-0.31-0.5s-0.3-0.24-0.48-0.32c-0.1-0.04-0.21-0.07-0.31-0.09V4.84H9.68v0.45C9.49,5.3,9.31,5.34,9.16,5.41
		C8.97,5.5,8.82,5.63,8.72,5.79C8.61,5.96,8.56,6.15,8.56,6.36c0,0.25,0.07,0.46,0.22,0.63C8.92,7.17,9.14,7.31,9.44,7.4l0.24,0.08
		v0.86C9.59,8.32,9.51,8.27,9.43,8.22C9.27,8.1,9.14,7.95,9.05,7.75L8.42,8.03C8.49,8.24,8.6,8.42,8.75,8.57
		C8.9,8.73,9.07,8.85,9.27,8.93c0.13,0.05,0.27,0.08,0.41,0.1v0.46h0.44V9.04c0.17-0.02,0.34-0.05,0.48-0.12
		c0.19-0.09,0.35-0.22,0.46-0.39c0.11-0.17,0.17-0.35,0.17-0.57c0-0.25-0.07-0.45-0.22-0.62C10.86,7.16,10.64,7.03,10.35,6.93z
		 M9.64,6.71c-0.11-0.04-0.2-0.09-0.25-0.15C9.34,6.49,9.31,6.42,9.31,6.33c0-0.08,0.02-0.15,0.06-0.21
		c0.04-0.06,0.1-0.11,0.18-0.14c0.04-0.02,0.08-0.03,0.12-0.04v0.77L9.64,6.71z M10.42,8.21c-0.04,0.06-0.1,0.1-0.18,0.14
		c-0.04,0.02-0.08,0.03-0.12,0.04V7.63l0.03,0.01c0.11,0.04,0.19,0.08,0.25,0.15c0.05,0.06,0.08,0.13,0.08,0.22
		C10.48,8.08,10.46,8.15,10.42,8.21z"/>
</g>
</svg>
