<?xml version="1.0" encoding="utf-8"?>
<!-- Generator: Adobe Illustrator 26.0.1, SVG Export Plug-In . SVG Version: 6.00 Build 0)  -->
<svg version="1.1" id="Layer_1" xmlns="http://www.w3.org/2000/svg" xmlns:xlink="http://www.w3.org/1999/xlink" x="0px" y="0px"
	 viewBox="0 0 24 24" style="enable-background:new 0 0 24 24;" xml:space="preserve">
<style type="text/css">
	.st0{fill:#399CFF;}
	.st1{fill:#B0D7FF;}
</style>
<g>
	<g>
		<path class="st0" d="M20.5-31.5c1.1,0,2,0.9,2,2s-0.9,2-2,2h-17c-1.1,0-2-0.9-2-2s0.9-2,2-2H20.5 M20.5-33h-17
			C1.57-33,0-31.43,0-29.5S1.57-26,3.5-26h17c1.93,0,3.5-1.57,3.5-3.5S22.43-33,20.5-33L20.5-33z"/>
	</g>
	<g>
		<path class="st0" d="M9.03-28.75H3.7c-0.41,0-0.75-0.34-0.75-0.75s0.34-0.75,0.75-0.75h5.33c0.41,0,0.75,0.34,0.75,0.75
			S9.45-28.75,9.03-28.75z"/>
	</g>
	<g>
		<path class="st0" d="M20.5-23.5c1.1,0,2,0.9,2,2s-0.9,2-2,2h-17c-1.1,0-2-0.9-2-2s0.9-2,2-2H20.5 M20.5-25h-17
			C1.57-25,0-23.43,0-21.5S1.57-18,3.5-18h17c1.93,0,3.5-1.57,3.5-3.5S22.43-25,20.5-25L20.5-25z"/>
	</g>
	<g>
		<path class="st0" d="M9.03-20.75H3.7c-0.41,0-0.75-0.34-0.75-0.75s0.34-0.75,0.75-0.75h5.33c0.41,0,0.75,0.34,0.75,0.75
			S9.45-20.75,9.03-20.75z"/>
	</g>
	<g>
		<path class="st0" d="M9.23-15.46c1.1,0,2,0.9,2,2s-0.9,2-2,2H3.5c-1.1,0-2-0.9-2-2s0.9-2,2-2H9.23 M9.23-16.96H3.5
			c-1.93,0-3.5,1.57-3.5,3.5s1.57,3.5,3.5,3.5h5.73c1.93,0,3.5-1.57,3.5-3.5S11.16-16.96,9.23-16.96L9.23-16.96z"/>
	</g>
	<g>
		<path class="st0" d="M9.03-12.71H3.7c-0.41,0-0.75-0.34-0.75-0.75s0.34-0.75,0.75-0.75h5.33c0.41,0,0.75,0.34,0.75,0.75
			S9.45-12.71,9.03-12.71z"/>
	</g>
</g>
<g>
	<g>
		<path class="st1" d="M23.25,6.25H10.67c-0.41,0-0.75-0.34-0.75-0.75s0.34-0.75,0.75-0.75h12.58C23.66,4.75,24,5.09,24,5.5
			S23.66,6.25,23.25,6.25z"/>
	</g>
	<g>
		<path class="st0" d="M12.17,6.25H0.75C0.34,6.25,0,5.91,0,5.5s0.34-0.75,0.75-0.75h11.42c0.41,0,0.75,0.34,0.75,0.75
			S12.58,6.25,12.17,6.25z"/>
	</g>
	<circle class="st0" cx="11.42" cy="5.5" r="1.75"/>
	<g>
		<path class="st1" d="M23.25,12.75h-9.58c-0.41,0-0.75-0.34-0.75-0.75s0.34-0.75,0.75-0.75h9.58c0.41,0,0.75,0.34,0.75,0.75
			S23.66,12.75,23.25,12.75z"/>
	</g>
	<g>
		<path class="st0" d="M20,12.75H0.75C0.34,12.75,0,12.41,0,12s0.34-0.75,0.75-0.75H20c0.41,0,0.75,0.34,0.75,0.75
			S20.41,12.75,20,12.75z"/>
	</g>
	<circle class="st0" cx="19.25" cy="12" r="1.75"/>
	<g>
		<path class="st1" d="M23.25,19.25h-9.58c-0.41,0-0.75-0.34-0.75-0.75s0.34-0.75,0.75-0.75h9.58c0.41,0,0.75,0.34,0.75,0.75
			S23.66,19.25,23.25,19.25z"/>
	</g>
	<g>
		<path class="st0" d="M15.14,19.25H0.75C0.34,19.25,0,18.91,0,18.5s0.34-0.75,0.75-0.75h14.39c0.41,0,0.75,0.34,0.75,0.75
			S15.56,19.25,15.14,19.25z"/>
	</g>
	<circle class="st0" cx="14.42" cy="18.5" r="1.75"/>
</g>
</svg>
