<?xml version="1.0" encoding="utf-8"?>
<!-- Generator: Adobe Illustrator 26.0.1, SVG Export Plug-In . SVG Version: 6.00 Build 0)  -->
<svg version="1.1" id="Layer_1" xmlns="http://www.w3.org/2000/svg" xmlns:xlink="http://www.w3.org/1999/xlink" x="0px" y="0px"
	 viewBox="0 0 24 24" style="enable-background:new 0 0 24 24;" xml:space="preserve">
<style type="text/css">
	.st0{fill:#399CFF;}
	.st1{fill:#B0D7FF;}
</style>
<path class="st0" d="M22.5,8c0,0.28-0.22,0.5-0.5,0.5H2C1.72,8.5,1.5,8.28,1.5,8V2c0-0.28,0.22-0.5,0.5-0.5h20
	c0.28,0,0.5,0.22,0.5,0.5V8 M24,8V2c0-1.1-0.9-2-2-2H2C0.9,0,0,0.9,0,2v6c0,1.1,0.9,2,2,2h20C23.1,10,24,9.1,24,8L24,8z"/>
<path class="st1" d="M22.5,15c0,0.28-0.22,0.5-0.5,0.5H2c-0.28,0-0.5-0.22-0.5-0.5v-1c0-0.28,0.22-0.5,0.5-0.5h20
	c0.28,0,0.5,0.22,0.5,0.5V15 M24,15v-1c0-1.1-0.9-2-2-2H2c-1.1,0-2,0.9-2,2v1c0,1.1,0.9,2,2,2h20C23.1,17,24,16.1,24,15L24,15z"/>
<path class="st1" d="M22.5,22c0,0.28-0.22,0.5-0.5,0.5H2c-0.28,0-0.5-0.22-0.5-0.5v-1c0-0.28,0.22-0.5,0.5-0.5h20
	c0.28,0,0.5,0.22,0.5,0.5V22 M24,22v-1c0-1.1-0.9-2-2-2H2c-1.1,0-2,0.9-2,2v1c0,1.1,0.9,2,2,2h20C23.1,24,24,23.1,24,22L24,22z"/>
</svg>
