<?xml version="1.0" encoding="utf-8"?>
<!-- Generator: Adobe Illustrator 26.0.1, SVG Export Plug-In . SVG Version: 6.00 Build 0)  -->
<svg version="1.1" id="Layer_1" xmlns="http://www.w3.org/2000/svg" xmlns:xlink="http://www.w3.org/1999/xlink" x="0px" y="0px"
	 viewBox="0 0 24 24" style="enable-background:new 0 0 24 24;" xml:space="preserve">
<style type="text/css">
	.st0{fill:#399CFF;}
</style>
<g>
	<path class="st0" d="M18.1,18.4H5.9c-1.4,0-2.5-1.1-2.5-2.5V8.1c0-1.4,1.1-2.5,2.5-2.5h12.3c1.4,0,2.5,1.1,2.5,2.5v7.8
		C20.6,17.3,19.5,18.4,18.1,18.4z M5.9,7.1c-0.5,0-1,0.4-1,1v7.8c0,0.5,0.4,1,1,1h12.3c0.5,0,1-0.4,1-1V8.1c0-0.5-0.4-1-1-1H5.9z
		 M13.1,15H7.5c-0.4,0-0.8-0.3-0.8-0.8c0-0.4,0.3-0.8,0.8-0.8h5.6c0.4,0,0.8,0.3,0.8,0.8C13.9,14.7,13.5,15,13.1,15z M22.1,13.9
		c-0.2,0-0.4-0.1-0.5-0.2c-0.3-0.3-0.3-0.8,0-1.1l0.6-0.6l-0.6-0.6c-0.3-0.3-0.3-0.8,0-1.1c0.3-0.3,0.8-0.3,1.1,0l1.1,1.1
		c0.3,0.3,0.3,0.8,0,1.1l-1.1,1.1C22.5,13.8,22.3,13.9,22.1,13.9z M1.9,13.9c-0.2,0-0.4-0.1-0.5-0.2l-1.1-1.1
		c-0.3-0.3-0.3-0.8,0-1.1l1.1-1.1c0.3-0.3,0.8-0.3,1.1,0c0.3,0.3,0.3,0.8,0,1.1L1.8,12l0.6,0.6c0.3,0.3,0.3,0.8,0,1.1
		C2.3,13.8,2.1,13.9,1.9,13.9z M16.5,12.8h-9c-0.4,0-0.8-0.3-0.8-0.8s0.3-0.8,0.8-0.8h9c0.4,0,0.8,0.3,0.8,0.8S16.9,12.8,16.5,12.8z
		 M10.9,10.5H7.5c-0.4,0-0.8-0.3-0.8-0.8C6.7,9.3,7.1,9,7.5,9h3.4c0.4,0,0.8,0.3,0.8,0.8C11.6,10.2,11.3,10.5,10.9,10.5z"/>
</g>
</svg>
