<?xml version="1.0" encoding="utf-8"?>
<!-- Generator: Adobe Illustrator 26.0.1, SVG Export Plug-In . SVG Version: 6.00 Build 0)  -->
<svg version="1.1" id="Layer_1" xmlns="http://www.w3.org/2000/svg" xmlns:xlink="http://www.w3.org/1999/xlink" x="0px" y="0px"
	 viewBox="0 0 24 24" style="enable-background:new 0 0 24 24;" xml:space="preserve">
<style type="text/css">
	.st0{fill:#399CFF;}
</style>
<g>
	<rect x="7.13" y="7.35" transform="matrix(0.8614 -0.5079 0.5079 0.8614 -2.4567 7.1959)" class="st0" width="9.66" height="1.5"/>
</g>
<g>
	
		<rect x="11.14" y="11.28" transform="matrix(0.4832 -0.8755 0.8755 0.4832 -7.9724 18.7417)" class="st0" width="1.5" height="9.68"/>
</g>
<g>
	<path class="st0" d="M5.09,9.65c0.84,0,1.62,0.42,2.09,1.12c0.27,0.41,0.41,0.89,0.41,1.38c0,0.48-0.13,0.94-0.39,1.34
		c-0.46,0.72-1.25,1.16-2.11,1.16c-1.38,0-2.5-1.12-2.5-2.5S3.71,9.65,5.09,9.65 M5.09,8.15c-2.21,0-4,1.79-4,4c0,2.21,1.79,4,4,4
		c1.42,0,2.67-0.74,3.38-1.85c0.39-0.62,0.62-1.36,0.62-2.15c0-0.81-0.24-1.58-0.66-2.21C7.71,8.86,6.48,8.15,5.09,8.15L5.09,8.15z"
		/>
</g>
<g>
	<path class="st0" d="M18.91,1.5c1.38,0,2.5,1.12,2.5,2.5s-1.12,2.5-2.5,2.5s-2.5-1.12-2.5-2.5S17.53,1.5,18.91,1.5 M18.91,0
		c-2.21,0-4,1.79-4,4s1.79,4,4,4s4-1.79,4-4S21.12,0,18.91,0L18.91,0z"/>
</g>
<g>
	<path class="st0" d="M18.91,17.5c1.38,0,2.5,1.12,2.5,2.5s-1.12,2.5-2.5,2.5s-2.5-1.12-2.5-2.5S17.53,17.5,18.91,17.5 M18.91,16
		c-2.21,0-4,1.79-4,4s1.79,4,4,4s4-1.79,4-4S21.12,16,18.91,16L18.91,16z"/>
</g>
<path class="st0" d="M4.76,12.55l-0.05,0.71c0.07,0,0.1-0.03,0.14-0.07l0.34-0.32l0.7,0.51c0.13,0.07,0.22,0.03,0.25-0.12l0.46-2.15
	l0,0c0.04-0.19-0.07-0.26-0.19-0.22l-2.69,1.03C3.53,12,3.53,12.11,3.68,12.15l0.69,0.21l1.6-1c0.08-0.05,0.14-0.02,0.09,0.03
	L4.76,12.55z"/>
<g>
	<path class="st0" d="M20.16,5.31L20.16,5.31l0-0.96c0-0.47-0.1-0.83-0.62-0.83c-0.25,0-0.42,0.15-0.49,0.28h-0.01V3.56h-0.5v1.75
		h0.52V4.44C19.06,4.22,19.1,4,19.37,4c0.27,0,0.27,0.26,0.27,0.46v0.85H20.16z"/>
	<path class="st0" d="M17.7,3.56h0.52v1.75H17.7V3.56z"/>
	<path class="st0" d="M17.96,2.69c-0.17,0-0.3,0.14-0.3,0.32c0,0.17,0.13,0.32,0.3,0.32s0.3-0.14,0.3-0.32
		C18.26,2.83,18.13,2.69,17.96,2.69z"/>
</g>
<path class="st0" d="M19.39,18.99h0.28V18.5c-0.05-0.01-0.21-0.02-0.4-0.02c-0.88,0-0.64,0.99-0.67,1.14h-0.44v0.54h0.44v1.36h0.54
	v-1.36h0.42l0.07-0.54h-0.49C19.16,19.26,19.04,18.99,19.39,18.99z"/>
</svg>
