<?xml version="1.0" encoding="utf-8"?>
<!-- Generator: Adobe Illustrator 26.0.1, SVG Export Plug-In . SVG Version: 6.00 Build 0)  -->
<svg version="1.1" id="Layer_1" xmlns="http://www.w3.org/2000/svg" xmlns:xlink="http://www.w3.org/1999/xlink" x="0px" y="0px"
	 viewBox="0 0 24 24" style="enable-background:new 0 0 24 24;" xml:space="preserve">
<style type="text/css">
	.st0{fill:#399CFF;}
</style>
<g>
	<path class="st0" d="M12,2.27c0.75,0,1.35,0.61,1.35,1.35S12.75,4.97,12,4.97s-1.35-0.61-1.35-1.35S11.25,2.27,12,2.27 M12,0
		c-1.99,0-3.6,1.62-3.6,3.61s1.6,3.61,3.6,3.61s3.6-1.62,3.6-3.61S13.99,0,12,0L12,0z"/>
	<g>
		<path class="st0" d="M21.92,13.86c-0.22-0.51-0.54-0.99-0.92-1.43h-0.01c-1.82-2.23-5.16-3.7-8.99-3.7s-7.17,1.47-8.98,3.7H3
			c-0.38,0.44-0.69,0.91-0.92,1.43c-0.39,0.8-0.58,1.64-0.58,2.51c0,1.23,0.4,2.42,1.12,3.45c0.35,0.48,0.75,0.93,1.21,1.33
			C5.76,22.91,8.7,24,12,24s6.24-1.09,8.16-2.85c0.47-0.41,0.87-0.85,1.22-1.33c0.72-1.04,1.12-2.22,1.12-3.45
			C22.5,15.49,22.31,14.66,21.92,13.86z M17.58,20.28c-1.48,0.9-3.45,1.45-5.58,1.45s-4.09-0.56-5.58-1.45
			c-0.51-0.3-0.97-0.66-1.36-1.05c-0.82-0.82-1.3-1.83-1.3-2.86c0-0.73,0.24-1.44,0.66-2.1h0.01c0.29-0.44,0.68-0.84,1.12-1.22
			c1.53-1.24,3.87-2.07,6.45-2.07s4.92,0.81,6.45,2.07c0.45,0.38,0.84,0.78,1.12,1.22h0.01c0.42,0.65,0.66,1.35,0.66,2.1
			c0,1.03-0.48,2.04-1.31,2.86C18.56,19.62,18.09,19.98,17.58,20.28z"/>
	</g>
</g>
</svg>
