<?xml version="1.0" encoding="utf-8"?>
<!-- Generator: Adobe Illustrator 26.0.1, SVG Export Plug-In . SVG Version: 6.00 Build 0)  -->
<svg version="1.1" id="Layer_1" xmlns="http://www.w3.org/2000/svg" xmlns:xlink="http://www.w3.org/1999/xlink" x="0px" y="0px"
	 viewBox="0 0 24 24" style="enable-background:new 0 0 24 24;" xml:space="preserve">
<style type="text/css">
	.st0{fill:#B0D7FF;}
	.st1{fill:#399CFF;}
</style>
<g>
	<path class="st0" d="M21,4.55c0.83,0,1.5,0.67,1.5,1.5v7.67c0,0.83-0.67,1.5-1.5,1.5h-1.1h-1.49l-0.01,1.49l-0.01,1.28l-3.35-2.48
		l-0.4-0.29h-0.49H3c-0.83,0-1.5-0.67-1.5-1.5V6.05c0-0.83,0.67-1.5,1.5-1.5H21 M21,3.05H3c-1.66,0-3,1.34-3,3v7.67
		c0,1.66,1.34,3,3,3h11.15l5.73,4.24l0.02-4.24H21c1.66,0,3-1.34,3-3V6.05C24,4.39,22.66,3.05,21,3.05L21,3.05z"/>
	<g>
		<g>
			<polygon class="st1" points="18.36,7.81 19.04,9.17 20.55,9.39 19.46,10.46 19.71,11.96 18.36,11.25 17.02,11.96 17.27,10.46 
				16.18,9.39 17.69,9.17 			"/>
		</g>
		<g>
			<polygon class="st1" points="12,7.81 12.67,9.17 14.18,9.39 13.09,10.46 13.35,11.96 12,11.25 10.65,11.96 10.91,10.46 
				9.82,9.39 11.33,9.17 			"/>
		</g>
		<g>
			<polygon class="st1" points="5.64,7.81 6.31,9.17 7.82,9.39 6.73,10.46 6.98,11.96 5.64,11.25 4.29,11.96 4.54,10.46 3.45,9.39 
				4.96,9.17 			"/>
		</g>
	</g>
</g>
</svg>
