<svg width="185" height="62" viewBox="0 0 185 62" fill="none" xmlns="http://www.w3.org/2000/svg">
<g clip-path="url(#clip0_5650_4431)">
<g clip-path="url(#clip1_5650_4431)">
<path d="M45.8361 30.9938L52.0582 34.5992C52.9523 35.1179 53.6947 35.864 54.2109 36.7625C54.727 37.6609 54.9988 38.6801 54.9988 39.7176V43.5357C54.9988 44.5731 54.727 45.5923 54.2109 46.4908C53.6947 47.3893 52.9523 48.1353 52.0582 48.6541L45.8361 52.2594L36.638 57.5906L30.4041 61.2077C29.51 61.7265 28.4959 61.9996 27.4635 61.9996C26.4312 61.9996 25.417 61.7265 24.523 61.2077L18.3008 57.5906V46.9519L27.4635 52.2712L36.638 46.9519L45.8008 41.6444L36.638 36.325L27.4635 31.0057L36.638 25.6745L45.8008 20.367L36.638 15.0476L27.4635 9.74005L18.3008 4.4207L24.523 0.803547C25.417 0.284801 26.4312 0.0117188 27.4635 0.0117188C28.4959 0.0117188 29.51 0.284801 30.4041 0.803547L36.6263 4.4207L45.7772 9.74005L51.9995 13.3572C52.8935 13.8759 53.6359 14.622 54.1521 15.5205C54.6682 16.419 54.94 17.4382 54.94 18.4756V22.2819C54.94 23.3194 54.6682 24.3385 54.1521 25.237C53.6359 26.1355 52.8935 26.8816 51.9995 27.4003L45.8361 30.9938Z" fill="#0B0C0E"/>
<path d="M18.3137 15.0594L9.16276 20.3551V52.2712L2.95229 48.6659C2.05608 48.1487 1.31133 47.4032 0.793036 46.5046C0.274739 45.606 0.00121684 44.5861 0 43.5475V18.452C2.62251e-05 17.4145 0.271766 16.3953 0.787939 15.4968C1.30411 14.5984 2.04653 13.8523 2.94055 13.3336L6.21044 11.4422C7.10448 10.9235 8.11864 10.6504 9.15098 10.6504C10.1833 10.6504 11.1975 10.9235 12.0915 11.4422L18.3137 15.0594Z" fill="#399CFF"/>
<path d="M36.6407 25.6745L27.4662 30.9939L21.244 34.5992C20.35 35.118 19.3358 35.3911 18.3035 35.3911C17.2711 35.3911 16.2569 35.118 15.3629 34.5992L9.11719 30.9939L18.2799 25.6864L24.5139 22.0692C25.4079 21.5505 26.4221 21.2773 27.4544 21.2773C28.4868 21.2773 29.5009 21.5505 30.395 22.0692L36.6407 25.6745Z" fill="#399CFF"/>
</g>
<path d="M175.899 62.0001C174.119 62.0001 172.582 61.7454 171.289 61.236C170.017 60.7053 169.053 60.0049 168.396 59.1347C167.739 58.2645 167.41 57.3306 167.41 56.333C167.41 55.6113 167.59 55.0595 167.951 54.6774C168.332 54.2741 168.894 54.0619 169.636 54.0407C169.636 55.9297 170.176 57.3624 171.257 58.3387C172.36 59.3151 173.939 59.8033 175.995 59.8033C177.924 59.8033 179.418 59.4637 180.478 58.7845C181.559 58.084 182.099 57.0971 182.099 55.8236C182.099 55.0382 181.908 54.3909 181.527 53.8815C181.145 53.3508 180.488 52.9051 179.556 52.5443C178.623 52.1622 177.309 51.7908 175.613 51.43C172.794 50.8569 170.78 50.0822 169.572 49.1058C168.385 48.1082 167.792 46.7498 167.792 45.0306C167.792 43.842 168.12 42.802 168.777 41.9105C169.434 41.019 170.367 40.3398 171.575 39.8729C172.805 39.3847 174.225 39.1406 175.836 39.1406C177.319 39.1406 178.665 39.3635 179.874 39.8092C181.103 40.2549 182.057 40.8811 182.735 41.6876C183.435 42.4942 183.784 43.4069 183.784 44.4257C183.784 44.9988 183.604 45.4657 183.244 45.8265C182.905 46.1661 182.385 46.3466 181.686 46.3678C181.538 44.6273 180.965 43.3538 179.969 42.5473C178.994 41.7195 177.595 41.3056 175.772 41.3056C174.034 41.3056 172.688 41.624 171.734 42.2607C170.802 42.8975 170.335 43.7889 170.335 44.9351C170.335 45.7204 170.505 46.3678 170.844 46.8772C171.204 47.3866 171.798 47.8217 172.624 48.1825C173.451 48.5434 174.606 48.883 176.09 49.2013C178.231 49.6471 179.916 50.1565 181.145 50.7295C182.396 51.3026 183.286 51.9924 183.816 52.799C184.367 53.6055 184.643 54.6137 184.643 55.8236C184.643 57.7338 183.848 59.2408 182.258 60.3445C180.69 61.4482 178.57 62.0001 175.899 62.0001Z" fill="#0B0C0E"/>
<path d="M148.922 41.3693C148.922 40.6688 149.144 40.1276 149.59 39.7455C150.056 39.3423 150.681 39.1406 151.465 39.1406V50.3475L163.42 39.1406C164.077 39.7349 164.406 40.2443 164.406 40.6688C164.406 41.157 164.13 41.6558 163.579 42.1652L155.694 49.5834L165.614 61.3633C165.423 61.5543 165.19 61.7029 164.915 61.809C164.66 61.9364 164.416 62.0001 164.183 62.0001C163.441 62.0001 162.848 61.7348 162.403 61.2041L153.882 51.1753L151.465 53.4357V59.8351C151.465 61.2784 150.618 62.0001 148.922 62.0001V41.3693Z" fill="#0B0C0E"/>
<path d="M135.991 62.0001C134.231 62.0001 132.663 61.6817 131.285 61.0449C129.928 60.387 128.869 59.4743 128.106 58.3069C127.342 57.1395 126.961 55.813 126.961 54.3272V46.7498C126.961 45.2641 127.342 43.9481 128.106 42.802C128.869 41.6558 129.928 40.7643 131.285 40.1276C132.642 39.4696 134.189 39.1406 135.927 39.1406C137.665 39.1406 139.212 39.4272 140.569 40.0002C141.926 40.5521 142.985 41.3268 143.748 42.3244C144.512 43.322 144.893 44.4575 144.893 45.731C144.893 46.3041 144.702 46.7604 144.321 47.1C143.939 47.4396 143.42 47.6094 142.763 47.6094L142.381 47.5776C142.424 47.3654 142.445 46.9939 142.445 46.4633C142.445 45.4869 142.169 44.6167 141.618 43.8526C141.067 43.0673 140.293 42.4624 139.297 42.0379C138.322 41.6134 137.199 41.4011 135.927 41.4011C134.676 41.4011 133.564 41.6346 132.589 42.1015C131.614 42.5473 130.85 43.1734 130.299 43.98C129.769 44.7865 129.505 45.7098 129.505 46.7498V54.3272C129.505 55.3672 129.78 56.3011 130.331 57.1289C130.882 57.9567 131.645 58.6041 132.62 59.071C133.617 59.5167 134.74 59.7396 135.991 59.7396C137.284 59.7396 138.428 59.5273 139.424 59.1028C140.421 58.6783 141.194 58.084 141.745 57.3199C142.318 56.5346 142.604 55.6432 142.604 54.6456C142.604 54.2847 142.583 53.9133 142.54 53.5313L142.89 53.4994C143.547 53.4994 144.066 53.6904 144.448 54.0725C144.851 54.4545 145.052 54.9639 145.052 55.6007C145.052 56.8318 144.671 57.9355 143.907 58.9118C143.144 59.8882 142.074 60.6523 140.696 61.2041C139.318 61.7348 137.75 62.0001 135.991 62.0001Z" fill="#0B0C0E"/>
<path d="M114.186 62.0001C112.427 62.0001 110.859 61.6499 109.481 60.9494C108.124 60.249 107.054 59.2939 106.27 58.084C105.507 56.853 105.125 55.484 105.125 53.977V47.1C105.125 45.5931 105.507 44.2347 106.27 43.0248C107.033 41.815 108.092 40.8705 109.449 40.1913C110.827 39.4908 112.406 39.1406 114.186 39.1406C115.967 39.1406 117.546 39.4908 118.924 40.1913C120.302 40.8705 121.372 41.815 122.135 43.0248C122.898 44.2134 123.28 45.5718 123.28 47.1V53.977C123.28 55.5052 122.898 56.8742 122.135 58.084C121.372 59.2939 120.291 60.249 118.892 60.9494C117.514 61.6499 115.946 62.0001 114.186 62.0001ZM114.186 59.7714C116.285 59.7714 117.906 59.2514 119.051 58.2114C120.217 57.1501 120.8 55.7281 120.8 53.9451V47.1319C120.8 45.3702 120.227 43.9693 119.083 42.9293C117.938 41.8893 116.306 41.3693 114.186 41.3693C112.109 41.3693 110.488 41.8893 109.322 42.9293C108.177 43.9693 107.605 45.3702 107.605 47.1319V53.9451C107.605 55.7281 108.177 57.1501 109.322 58.2114C110.488 59.2514 112.109 59.7714 114.186 59.7714Z" fill="#0B0C0E"/>
<path d="M91.1674 61.7135C90.8071 61.7135 90.4891 61.5862 90.2136 61.3315C89.9592 61.0768 89.832 60.769 89.832 60.4082V41.3693C89.832 39.8835 90.6799 39.1406 92.3756 39.1406V59.4531H102.55C103.228 59.4531 103.737 59.6547 104.076 60.058C104.436 60.44 104.617 60.9919 104.617 61.7135H91.1674Z" fill="#0B0C0E"/>
<path d="M70.3036 61.7122C69.9432 61.7122 69.6359 61.5954 69.3815 61.3619C69.1272 61.1285 69 60.8419 69 60.5023V40.6356C69 40.296 69.1272 40.0095 69.3815 39.776C69.6359 39.5425 69.9432 39.4258 70.3036 39.4258H79.2696C81.0289 39.4258 82.4279 39.9776 83.4665 41.0813C84.5263 42.1638 85.0563 43.6284 85.0563 45.4749C85.0563 46.4937 84.7807 47.4595 84.2296 48.3722C83.6785 49.2636 82.979 49.911 82.1312 50.3143V50.3779C83.3605 50.7388 84.3038 51.3649 84.9609 52.2564C85.6392 53.1266 85.9783 54.2091 85.9783 55.5038C85.9783 56.7136 85.7239 57.7961 85.2152 58.7512C84.7277 59.6852 84.0388 60.4174 83.1486 60.948C82.2583 61.4574 81.2409 61.7122 80.0963 61.7122H70.3036ZM79.2061 49.4546C80.1387 49.4546 80.9336 49.0726 81.5906 48.3085C82.2689 47.5444 82.6081 46.6105 82.6081 45.5068C82.6081 44.2757 82.3007 43.3206 81.686 42.6414C81.0925 41.9622 80.2659 41.6226 79.2061 41.6226H71.5118V49.4546H79.2061ZM79.8419 59.5154C81.0077 59.5154 81.9086 59.1651 82.5445 58.4647C83.2016 57.7643 83.5301 56.7879 83.5301 55.5356C83.5301 54.3046 83.2016 53.3495 82.5445 52.6703C81.9086 51.991 81.0077 51.6514 79.8419 51.6514H71.5118V59.5154H79.8419Z" fill="#0B0C0E"/>
<path d="M175.819 28.4538C173.112 28.4538 170.976 28.0091 169.411 27.1199C167.844 26.2043 167.062 24.9879 167.062 23.4708C167.062 22.7906 167.354 22.2152 167.938 21.7442C168.548 21.2734 169.517 21.038 170.844 21.038C171.056 22.0843 171.587 22.9083 172.436 23.51C173.285 24.0854 174.281 24.3732 175.421 24.3732C176.748 24.3732 177.771 24.2162 178.487 23.9024C179.23 23.5884 179.602 23.1307 179.602 22.529C179.602 22.0058 179.31 21.5481 178.725 21.1557C178.142 20.7633 176.974 20.3579 175.223 19.9393C173.18 19.4685 171.587 18.9977 170.446 18.5268C169.331 18.0298 168.508 17.4151 167.977 16.6826C167.446 15.9502 167.182 14.9823 167.182 13.779C167.182 12.0787 167.898 10.7185 169.331 9.69837C170.791 8.65202 172.821 8.12891 175.421 8.12891C177.97 8.12891 180.039 8.56051 181.633 9.42371C183.224 10.2869 184.02 11.4379 184.02 12.8766C184.02 13.609 183.741 14.1452 183.185 14.4853C182.627 14.7993 181.698 14.9692 180.398 14.9954C180.054 14.0014 179.522 13.269 178.805 12.7981C178.116 12.3011 177.12 12.0526 175.819 12.0526C174.89 12.0526 174.068 12.2096 173.352 12.5234C172.635 12.8373 172.277 13.2167 172.277 13.6613C172.277 14.1583 172.569 14.5507 173.153 14.8385C173.763 15.1263 174.771 15.4139 176.178 15.7017C179.23 16.3557 181.42 17.2189 182.746 18.2914C184.1 19.3639 184.777 20.8156 184.777 22.6468C184.777 23.7715 184.419 24.7787 183.702 25.668C182.986 26.5574 181.951 27.2506 180.597 27.7476C179.244 28.2185 177.651 28.4538 175.819 28.4538Z" fill="#0B0C0E"/>
<path d="M162.818 6.42013C161.821 6.42013 160.979 6.12961 160.297 5.54828C159.64 4.94061 159.312 4.16123 159.312 3.21009C159.312 2.25895 159.64 1.49275 160.297 0.911512C160.979 0.303837 161.821 0 162.818 0C163.816 0 164.644 0.303837 165.3 0.911512C165.983 1.49275 166.324 2.25895 166.324 3.21009C166.324 4.16123 165.983 4.94061 165.3 5.54828C164.644 6.12961 163.816 6.42013 162.818 6.42013ZM160.1 11.0965C160.1 9.96051 160.547 9.15474 161.439 8.67908C162.332 8.17708 163.684 7.92614 165.497 7.92614V25.2844C165.497 26.4204 165.05 27.2396 164.157 27.7414C163.264 28.2171 161.912 28.4549 160.1 28.4549V11.0965Z" fill="#0B0C0E"/>
<path d="M153.536 28.4544C151.271 28.4544 149.605 27.8129 148.539 26.5298C147.473 25.2468 146.94 23.5971 146.94 21.5808V12.4291H142.703C142.703 11.0936 142.956 10.0985 143.463 9.4439C143.969 8.78927 144.635 8.46196 145.461 8.46196H147.02V5.35902C147.02 4.23305 147.46 3.43441 148.339 2.96307C149.218 2.46555 150.55 2.2168 152.336 2.2168V8.46196H157.652C157.652 9.87595 157.386 10.8973 156.853 11.5257C156.32 12.1279 155.441 12.4291 154.215 12.4291H152.416V21.3845C152.416 22.2486 152.589 22.877 152.936 23.2698C153.282 23.6363 153.882 23.8197 154.734 23.8197C155.667 23.8197 156.626 23.5578 157.613 23.0341C157.905 23.296 158.132 23.6233 158.292 24.016C158.478 24.4088 158.572 24.8016 158.572 25.1944C158.572 25.7181 158.385 26.2287 158.012 26.7263C157.639 27.2238 157.067 27.6427 156.293 27.9832C155.547 28.2974 154.627 28.4544 153.536 28.4544Z" fill="#0B0C0E"/>
<path d="M123.516 12.2096C123.516 10.9017 123.953 9.8945 124.828 9.18824C125.703 8.48197 127.002 8.12891 128.725 8.12891V10.4438C128.327 10.8625 127.996 11.3072 127.731 11.778L128.009 11.9349C128.805 10.7316 129.812 9.803 131.032 9.14904C132.278 8.469 133.656 8.12891 135.168 8.12891C136.493 8.12891 137.66 8.42966 138.667 9.0313C139.701 9.63295 140.51 10.4701 141.093 11.5425C141.676 12.5889 141.968 13.7659 141.968 15.0738V25.3149C141.968 26.4397 141.517 27.2506 140.616 27.7476C139.714 28.2185 138.349 28.4538 136.52 28.4538V15.8978C136.52 15.0086 136.228 14.263 135.645 13.6613C135.088 13.0597 134.293 12.7589 133.259 12.7589C131.986 12.7589 130.952 13.1643 130.157 13.9753C129.361 14.7862 128.964 15.8063 128.964 17.0358V25.3149C128.964 26.4397 128.513 27.2506 127.612 27.7476C126.737 28.2185 125.371 28.4538 123.516 28.4538V12.2096Z" fill="#0B0C0E"/>
<path d="M112.445 28.4538C110.725 28.4538 109.161 28.14 107.754 27.5123C106.346 26.8844 105.239 26.0212 104.431 24.9225C103.623 23.7978 103.219 22.529 103.219 21.1165V15.8978C103.219 14.4592 103.61 13.1513 104.392 11.9741C105.174 10.7708 106.268 9.82922 107.675 9.14904C109.083 8.469 110.673 8.12891 112.445 8.12891C114.217 8.12891 115.807 8.469 117.214 9.14904C118.622 9.82922 119.716 10.7708 120.498 11.9741C121.28 13.1513 121.671 14.4592 121.671 15.8978V21.1165C121.671 22.529 121.267 23.7978 120.459 24.9225C119.651 26.0212 118.543 26.8844 117.136 27.5123C115.729 28.14 114.165 28.4538 112.445 28.4538ZM112.445 23.8238C113.67 23.8238 114.621 23.5492 115.299 22.9998C115.976 22.4505 116.315 21.6919 116.315 20.7241V16.1725C116.315 15.1524 115.963 14.3284 115.26 13.7006C114.582 13.0728 113.644 12.7589 112.445 12.7589C111.246 12.7589 110.295 13.0728 109.591 13.7006C108.913 14.3284 108.575 15.1524 108.575 16.1725V20.7241C108.575 21.6919 108.913 22.4505 109.591 22.9998C110.269 23.5492 111.22 23.8238 112.445 23.8238Z" fill="#0B0C0E"/>
<path d="M98.9806 12.7589C97.4267 12.7589 96.1707 13.1643 95.2125 13.9753C94.2542 14.7862 93.7752 15.8063 93.7752 17.0358V25.3149C93.7752 26.4397 93.3349 27.2506 92.4544 27.7476C91.5998 28.2185 90.2661 28.4538 88.4531 28.4538V12.2096C88.4531 10.9017 88.8805 9.8945 89.7352 9.18824C90.5898 8.48197 91.8587 8.12891 93.542 8.12891V10.4438C93.1536 10.8625 92.8299 11.3072 92.5709 11.778L92.8428 11.9349C94.4743 9.39762 96.5074 8.12891 98.9417 8.12891C100.107 8.12891 100.988 8.44277 101.583 9.0705C102.179 9.69837 102.477 10.4961 102.477 11.4641C102.477 12.1965 102.283 12.8373 101.894 13.3866C101.169 12.9682 100.198 12.7589 98.9806 12.7589Z" fill="#0B0C0E"/>
<path d="M70 3.0232C70 2.28376 70.2784 1.66317 70.8351 1.16141C71.4183 0.633224 72.1208 0.369141 72.9427 0.369141H91.0355C91.0355 2.11211 90.7438 3.37971 90.1607 4.17197C89.5775 4.96426 88.6364 5.36041 87.3374 5.36041H75.8454V11.4212H86.2638C86.2638 13.1641 85.9721 14.4317 85.389 15.2238C84.8058 16.0162 83.8646 16.4123 82.5657 16.4123H75.8454V24.4537C75.8454 25.8534 75.3815 26.87 74.4536 27.5039C73.5523 28.1376 72.0678 28.4545 70 28.4545V3.0232Z" fill="#0B0C0E"/>
</g>
<defs>
<clipPath id="clip0_5650_4431">
<rect width="184.775" height="62.0001" fill="white"/>
</clipPath>
<clipPath id="clip1_5650_4431">
<rect width="55" height="62" fill="white"/>
</clipPath>
</defs>
</svg>
